<svg width="133" height="58" viewBox="0 0 133 58" fill="none" xmlns="http://www.w3.org/2000/svg">
<path fill-rule="evenodd" clip-rule="evenodd" d="M61.1189 16.9606L61.1667 18.9211L63.1187 18.989C65.0794 19.0572 65.3809 19.1095 65.0534 19.3251C64.956 19.3893 62.0293 21.7799 58.5496 24.6377C55.0701 27.4955 52.1523 29.8593 52.0659 29.8908C51.9796 29.9222 49.6418 28.0743 46.8711 25.7843C44.1005 23.4943 41.646 21.4739 41.4167 21.2945L41 20.9683L41.1224 25.553C41.241 29.9963 41.2563 30.1465 41.6158 30.426C41.8198 30.5846 44.2316 32.5738 46.9753 34.8463C51.3877 38.5011 51.9982 38.9535 52.2625 38.7639C52.632 38.4987 68.1438 25.7688 69.311 24.7728C69.7761 24.3759 70.2536 24.0511 70.3719 24.0511C70.5318 24.0511 70.5869 24.5021 70.5869 25.811V27.5709H72.7935H75V21.2855V15H68.0355H61.0712L61.1189 16.9606Z" fill="#0000FE"/>
<path d="M12.9545 39H2.2017V9.90909H12.9403C15.9044 9.90909 18.4564 10.4915 20.5966 11.6562C22.7462 12.8116 24.4034 14.4782 25.5682 16.6562C26.733 18.8248 27.3153 21.4195 27.3153 24.4403C27.3153 27.4706 26.733 30.0748 25.5682 32.2528C24.4129 34.4309 22.7604 36.1023 20.6108 37.267C18.4612 38.4223 15.9091 39 12.9545 39ZM9.23295 33.0057H12.6847C14.3134 33.0057 15.6913 32.7311 16.8182 32.1818C17.9545 31.6231 18.8116 30.7188 19.3892 29.4688C19.9763 28.2093 20.2699 26.5331 20.2699 24.4403C20.2699 22.3475 19.9763 20.6809 19.3892 19.4403C18.8021 18.1903 17.9356 17.2907 16.7898 16.7415C15.6534 16.1828 14.2519 15.9034 12.5852 15.9034H9.23295V33.0057ZM31.4205 39V17.1818H38.3665V39H31.4205ZM34.9006 14.6392C33.9252 14.6392 33.0871 14.3172 32.3864 13.6733C31.6856 13.0199 31.3352 12.2339 31.3352 11.3153C31.3352 10.4062 31.6856 9.62973 32.3864 8.9858C33.0871 8.33239 33.9252 8.00568 34.9006 8.00568C35.8854 8.00568 36.7235 8.33239 37.4148 8.9858C38.1155 9.62973 38.4659 10.4062 38.4659 11.3153C38.4659 12.2339 38.1155 13.0199 37.4148 13.6733C36.7235 14.3172 35.8854 14.6392 34.9006 14.6392Z" fill="white"/>
<path d="M87.4006 39.4119C85.1184 39.4119 83.1487 38.9621 81.4915 38.0625C79.8438 37.1534 78.5748 35.8608 77.6847 34.1847C76.804 32.4991 76.3636 30.4962 76.3636 28.1761C76.3636 25.9223 76.8087 23.9527 77.6989 22.267C78.589 20.572 79.8438 19.2557 81.4631 18.3182C83.0824 17.3712 84.9905 16.8977 87.1875 16.8977C88.7405 16.8977 90.161 17.1392 91.4489 17.6222C92.7367 18.1051 93.8494 18.8201 94.7869 19.767C95.7244 20.714 96.4536 21.8835 96.9744 23.2756C97.4953 24.6581 97.7557 26.2443 97.7557 28.0341V29.767H78.7926V25.733H91.2926C91.2831 24.9943 91.108 24.3362 90.767 23.7585C90.4261 23.1809 89.9574 22.7311 89.3608 22.4091C88.7737 22.0777 88.0966 21.9119 87.3295 21.9119C86.553 21.9119 85.857 22.0871 85.2415 22.4375C84.6259 22.7784 84.1383 23.2472 83.7784 23.8438C83.4186 24.4309 83.2292 25.0985 83.2102 25.8466V29.9517C83.2102 30.8419 83.3854 31.6231 83.7358 32.2955C84.0862 32.9583 84.5833 33.4744 85.2273 33.8438C85.8712 34.2131 86.6383 34.3977 87.5284 34.3977C88.1439 34.3977 88.7027 34.3125 89.2045 34.142C89.7064 33.9716 90.1373 33.7206 90.4972 33.3892C90.857 33.0578 91.1269 32.6506 91.3068 32.1676L97.6847 32.3523C97.4195 33.7822 96.8371 35.0275 95.9375 36.0881C95.0473 37.1392 93.8778 37.9583 92.429 38.5455C90.9801 39.1231 89.304 39.4119 87.4006 39.4119ZM101.303 39V17.1818H108.05V21.1591H108.278C108.675 19.7197 109.324 18.6496 110.224 17.9489C111.123 17.2386 112.17 16.8835 113.363 16.8835C113.685 16.8835 114.016 16.9072 114.357 16.9545C114.698 16.9924 115.015 17.054 115.309 17.1392V23.1761C114.978 23.0625 114.542 22.9725 114.002 22.9062C113.472 22.84 112.998 22.8068 112.582 22.8068C111.758 22.8068 111.014 22.9915 110.352 23.3608C109.698 23.7206 109.182 24.2273 108.803 24.8807C108.434 25.5246 108.249 26.2822 108.249 27.1534V39H101.303ZM131.47 17.1818V22.2955H117.706V17.1818H131.47ZM120.589 11.9545H127.536V32.1392C127.536 32.5653 127.602 32.911 127.734 33.1761C127.876 33.4318 128.08 33.6165 128.345 33.7301C128.61 33.8343 128.928 33.8864 129.297 33.8864C129.562 33.8864 129.841 33.8627 130.135 33.8153C130.438 33.7585 130.665 33.7112 130.817 33.6733L131.868 38.6875C131.536 38.7822 131.068 38.9006 130.462 39.0426C129.865 39.1847 129.15 39.2746 128.317 39.3125C126.688 39.3883 125.291 39.1989 124.126 38.7443C122.971 38.2803 122.086 37.5606 121.47 36.5852C120.864 35.6098 120.571 34.3835 120.589 32.9062V11.9545Z" fill="white"/>
<path d="M1.54545 42.3636H2.77273L6.99432 52.5H7.09659L11.3182 42.3636H12.5455V54H11.5455V44.608H11.4545L7.52841 54H6.5625L2.63636 44.608H2.54545V54H1.54545V42.3636ZM15.6562 54H14.5426L18.7756 42.3636H19.9119L24.1449 54H23.0312L19.3835 43.7443H19.304L15.6562 54ZM16.4574 49.5398H22.2301V50.4943H16.4574V49.5398ZM26.1392 54V42.3636H29.8949C30.7206 42.3636 31.41 42.5133 31.9631 42.8125C32.5199 43.108 32.9384 43.5189 33.2188 44.0455C33.5028 44.5682 33.6449 45.1686 33.6449 45.8466C33.6449 46.5246 33.5028 47.1231 33.2188 47.642C32.9384 48.161 32.5218 48.5663 31.9688 48.858C31.4157 49.1496 30.7301 49.2955 29.9119 49.2955H26.7131V48.3239H29.8835C30.4896 48.3239 30.9934 48.2235 31.3949 48.0227C31.8002 47.822 32.1013 47.536 32.2983 47.1648C32.4991 46.7936 32.5994 46.3542 32.5994 45.8466C32.5994 45.339 32.4991 44.8958 32.2983 44.517C32.0975 44.1345 31.7945 43.839 31.3892 43.6307C30.9877 43.4223 30.4801 43.3182 29.8665 43.3182H27.2017V54H26.1392ZM31.2699 48.75L34.1335 54H32.9062L30.071 48.75H31.2699ZM36.233 54V42.3636H37.2955V48.6307H37.3977L43.0795 42.3636H44.4773L39.5057 47.7443L44.4545 54H43.1591L38.8466 48.483L37.2955 50.2216V54H36.233ZM46.483 54V42.3636H53.233V43.3182H47.5455V47.6989H52.875V48.6534H47.5455V53.0455H53.3466V54H46.483ZM55.2784 43.3182V42.3636H63.7159V43.3182H60.0284V54H58.9659V43.3182H55.2784ZM67.1705 42.3636V54H66.108V42.3636H67.1705ZM79.3267 42.3636V54H78.2926L71.4176 44.2557H71.3267V54H70.2642V42.3636H71.2926L78.1903 52.1193H78.2812V42.3636H79.3267ZM90.4716 46C90.3655 45.6136 90.2102 45.2519 90.0057 44.9148C89.8011 44.5739 89.5473 44.2765 89.2443 44.0227C88.9451 43.7652 88.5985 43.5644 88.2045 43.4205C87.8144 43.2765 87.3788 43.2045 86.8977 43.2045C86.1402 43.2045 85.4621 43.4015 84.8636 43.7955C84.2652 44.1894 83.7917 44.7576 83.4432 45.5C83.0985 46.2424 82.9261 47.1364 82.9261 48.1818C82.9261 49.2235 83.1004 50.1155 83.4489 50.858C83.7973 51.6004 84.2746 52.1705 84.8807 52.5682C85.4905 52.9621 86.1875 53.1591 86.9716 53.1591C87.6875 53.1591 88.3201 53 88.8693 52.6818C89.4186 52.3636 89.8466 51.9091 90.1534 51.3182C90.464 50.7273 90.6155 50.0246 90.608 49.2102L90.9489 49.3182H87.2216V48.3636H91.642V49.3182C91.642 50.3106 91.4413 51.1686 91.0398 51.892C90.6383 52.6155 90.0871 53.1742 89.3864 53.5682C88.6856 53.9621 87.8807 54.1591 86.9716 54.1591C85.9564 54.1591 85.0682 53.9148 84.3068 53.4261C83.5455 52.9337 82.9527 52.2405 82.5284 51.3466C82.108 50.4489 81.8977 49.3939 81.8977 48.1818C81.8977 47.2689 82.0189 46.4451 82.2614 45.7102C82.5038 44.9754 82.8466 44.3466 83.2898 43.8239C83.7367 43.3011 84.2652 42.9015 84.875 42.625C85.4848 42.3447 86.1591 42.2045 86.8977 42.2045C87.5341 42.2045 88.1155 42.3049 88.642 42.5057C89.1723 42.7064 89.6383 42.983 90.0398 43.3352C90.4451 43.6837 90.7765 44.0871 91.0341 44.5455C91.2955 45 91.4716 45.4848 91.5625 46H90.4716Z" fill="white"/>
</svg>
