<svg width="201" height="142" viewBox="0 0 201 142" fill="none" xmlns="http://www.w3.org/2000/svg">
<path fill-rule="evenodd" clip-rule="evenodd" d="M118.532 11.697L118.814 23.394L130.314 23.799C141.866 24.206 143.642 24.518 141.713 25.804C141.139 26.187 123.896 40.45 103.395 57.5C82.895 74.55 65.705 88.653 65.196 88.841C64.687 89.028 50.914 78.003 34.59 64.341C18.267 50.678 3.806 38.624 2.455 37.554L0 35.608L0.721 62.961C1.42 89.47 1.51 90.366 3.628 92.034C4.83 92.98 19.039 104.848 35.204 118.406C61.2 140.211 64.797 142.91 66.354 141.779C68.531 140.197 159.92 64.248 166.797 58.306C169.537 55.938 172.35 54 173.047 54C173.989 54 174.314 56.691 174.314 64.5V75H187.314H200.314V37.5V0H159.282H118.251L118.532 11.697Z" fill="black"/>
</svg>
