<svg width="256" height="256" viewBox="0 0 256 256" fill="none" xmlns="http://www.w3.org/2000/svg">
<path d="M256 128C256 198.692 198.692 256 128 256C57.3075 256 0 198.692 0 128C0 57.3075 57.3075 0 128 0C198.692 0 256 57.3075 256 128Z" fill="#0F172A"/>
<path fill-rule="evenodd" clip-rule="evenodd" d="M142.578 103.622L151.733 103.944C160.928 104.268 162.342 104.517 160.806 105.54C160.349 105.845 146.624 117.199 130.304 130.771C113.986 144.343 100.302 155.57 99.8973 155.719C99.4921 155.868 88.5286 147.092 75.5343 136.217C62.5409 125.341 51.0297 115.745 49.9542 114.894L48 113.345L48.5739 135.118C49.1303 156.22 49.202 156.933 50.888 158.261C51.8448 159.014 63.1554 168.461 76.0231 179.254C96.7164 196.611 99.5797 198.759 100.819 197.859C102.552 196.6 175.299 136.143 180.774 131.413C182.955 129.528 185.194 127.985 185.749 127.985C186.499 127.985 186.757 130.127 186.757 136.343V144.701H207.454V85H142.13L142.578 103.622Z" fill="#E4E4E7"/>
</svg>
