<svg id="ehLfzAtpDdT1" xmlns="http://www.w3.org/2000/svg" xmlns:xlink="http://www.w3.org/1999/xlink" viewBox="0 0 322 95" shape-rendering="geometricPrecision" text-rendering="geometricPrecision"><path d="M35.6507,41.0588c1.5869,0,2.8732,1.2863,2.8732,2.8732s-1.2863,2.8732-2.8732,2.8732-2.8732-1.2863-2.8732-2.8732s1.2863-2.8732,2.8732-2.8732Zm.6454,1.1898c.0001.0514.0152.7949.7954.8413c0,.2144.0002.3698.0002.5744-.059.0034-.5136-.0296-.7965-.2819l-.0009,1.1183c.0108.7762-.5604,1.2485-1.3071,1.0853-1.2875-.3851-.8596-2.2945.4331-2.0903c0,.6165.0003-.0001.0003.6165-.534-.0785-.7126.3657-.5707.6839.1291.2895.6609.3523.8464-.0563.021-.0799.0314-.1711.0314-.2735v-2.2205l.5684.0028Z" clip-rule="evenodd" fill="#e2e8f0" fill-rule="evenodd"/><path d="M47.0453,42.4308c0,.0658-.0195.1301-.056.1847-.0365.0547-.0885.0973-.1492.1225-.0608.0252-.1276.0318-.1921.019s-.1238-.0445-.1703-.091-.0782-.1058-.091-.1703-.0062-.1313.019-.1921c.0251-.0607.0678-.1127.1224-.1492s.119-.056.1848-.056c.0881,0,.1727.035.235.0974s.0974.1468.0974.235Zm1.056,1.5012l-.019,1.2096c-.0049.4347-.1797.8501-.4871,1.1575-.3073.3073-.7228.4822-1.1574.4871l-1.2097.019-.0042-.0001-1.2055-.0188c-.4346-.0049-.8501-.1798-1.1575-.4871-.3073-.3074-.4822-.7228-.4871-1.1575l-.0189-1.2097.0001-.0042.0188-1.2055c.0049-.4346.1798-.8501.4872-1.1574.3073-.3074.7228-.4822,1.1574-.4872l1.2097-.0189.0042.0001l1.2054.0188c.4346.0049.8501.1798,1.1575.4871.3073.3074.4822.7228.4871,1.1575l.019,1.2097Zm-.5351,0l-.0188-1.2013c-.0034-.2955-.1222-.5779-.3312-.7869s-.4914-.3278-.7869-.3311l-1.2012-.0188-1.2013.0188c-.2955.0033-.5779.1222-.7869.3312-.2089.2089-.3278.4913-.3311.7868L42.89,43.932l.0188,1.2013c.0033.2954.1222.5779.3311.7868.209.209.4914.3278.7869.3312l1.2013.0187l1.2012-.0187c.2955-.0034.578-.1222.7869-.3312.209-.2089.3278-.4914.3312-.7868l.0188-1.2013Zm-.8627,0c0,.2918-.0865.5771-.2486.8197-.1622.2427-.3926.4318-.6622.5434-.2696.1117-.5663.1409-.8525.084s-.5491-.1975-.7555-.4038c-.2063-.2064-.3468-.4693-.4038-.7555s-.0277-.5829.084-.8525.3008-.5.5434-.6621c.2427-.1622.528-.2487.8198-.2487.3912.0004.7662.156,1.0428.4327.2766.2766.4322.6516.4326,1.0428Zm-.535,0c0-.186-.0552-.3678-.1585-.5225s-.2502-.2752-.4221-.3463c-.1718-.0712-.3609-.0898-.5433-.0536-.1824.0363-.35.1259-.4815.2574s-.2211.2991-.2574.4815-.0176.3715.0535.5434.1918.3187.3464.422c.1547.1033.3365.1585.5225.1585.2493-.0003.4883-.0995.6646-.2758s.2755-.4153.2758-.6646Z" fill="#e2e8f0"/><path d="M57.6786,43.9494c0-1.5868-1.2863-2.8732-2.8732-2.8732-1.5868,0-2.8732,1.2864-2.8732,2.8732c0,1.4341,1.0507,2.6228,2.4243,2.8383v-2.0077h-.7295v-.8306h.7295v-.633c0-.7201.4289-1.1178,1.0852-1.1178.3144,0,.6432.0561.6432.0561v.7071h-.3623c-.3569,0-.4682.2214-.4682.4487v.5389h.7968l-.1274.8306h-.6694v2.0077c1.3735-.2155,2.4242-1.4042,2.4242-2.8383Z" fill="#e2e8f0"/><path d="M67.2006,43.3826c-.9197-.0004-1.8394-.0002-2.7591-.0001.0001.3815-.0005.763.0002,1.1443.5326-.0001,1.0653-.0002,1.5978,0-.0617.3655-.279.6998-.587.9056-.1937.1302-.4162.2147-.6456.2549-.2308.0394-.4694.0445-.6997-.0022-.2342-.0467-.4577-.1442-.6527-.2818-.3119-.2191-.5499-.5396-.672-.9003-.125-.367-.1259-.7752.0005-1.1418.0878-.2583.2338-.497.4256-.6912.2366-.2422.5442-.4154.8756-.4864.2838-.0606.583-.049.8608.0351.2362.0716.4539.201.6322.3713.1802-.1792.3596-.3594.5395-.539.0943-.0967.1935-.1891.2849-.2884-.2732-.2528-.5935-.4561-.9435-.5846-.6301-.2319-1.3407-.2368-1.975-.0172-.7148.2447-1.3235.7792-1.661,1.4549-.1175.2328-.2033.4813-.2548.7369-.1296.6369-.0393,1.3159.2545,1.8959.1909.3786.4646.7152.7966.979.3132.2498.6782.4343,1.0653.5372.4885.131,1.0084.1281,1.5.0162.4443-.1023.8647-.3146,1.2004-.6245.3548-.326.6078-.7556.7418-1.2172.1462-.5035.1663-1.0411.0747-1.5566Z" fill="#e2e8f0"/><path d="M25,54.5258v-4.1792h1.6488c.317,0,.587.0606.8102.1817.2231.1197.3931.2863.5101.4999.1184.2122.1776.4571.1776.7346c0,.2776-.0599.5224-.1796.7347-.1197.2122-.2932.3775-.5204.4958-.2258.1184-.4993.1776-.8203.1776h-1.0509v-.7081h.908c.1701,0,.3102-.0293.4204-.0878.1116-.0598.1945-.1421.249-.2469.0557-.1061.0836-.2279.0836-.3653c0-.1387-.0279-.2598-.0836-.3632-.0545-.1048-.1374-.1857-.249-.2428-.1115-.0585-.253-.0878-.4244-.0878h-.5959v3.4568h-.8836Z" fill="#e2e8f0"/><path d="M29.5139,54.585c-.2,0-.3782-.0347-.5347-.104-.1564-.0708-.2802-.1749-.3714-.3123-.0898-.1387-.1346-.3115-.1346-.5183c0-.1741.0319-.3204.0959-.4387.0639-.1184.151-.2136.2612-.2857s.2353-.1265.3754-.1633c.1415-.0367.2898-.0625.4449-.0775.1823-.019.3292-.0367.4408-.0531.1115-.0176.1925-.0435.2428-.0775s.0755-.0843.0755-.151v-.0123c0-.1292-.0408-.2292-.1224-.2999-.0803-.0708-.1946-.1061-.3429-.1061-.1564,0-.2809.0347-.3734.104-.0925.0681-.1537.1538-.1836.2572l-.8041-.0653c.0409-.1905.1211-.3551.2408-.4939.1198-.1401.2742-.2476.4633-.3224.1904-.0762.4108-.1143.6611-.1143.1742,0,.3408.0204.5.0612.1605.0409.3027.1041.4265.1898.1251.0857.2238.1959.2959.3306.0721.1333.1081.2932.1081.4796v2.114h-.8244v-.4346h-.0245c-.0503.0979-.1177.1843-.202.2592-.0844.0734-.1857.1312-.3041.1734-.1183.0408-.255.0612-.4101.0612Zm.2489-.5999c.1279,0,.2408-.0252.3388-.0755.0979-.0517.1748-.1211.2306-.2082.0557-.087.0836-.1857.0836-.2959v-.3326c-.0272.0177-.0646.034-.1122.049-.0463.0136-.0986.0265-.1571.0388-.0585.0108-.117.0211-.1755.0306-.0585.0081-.1116.0156-.1592.0224-.102.015-.1911.0388-.2673.0714s-.1354.0769-.1776.1327c-.0421.0544-.0632.1224-.0632.204c0,.1184.0428.2089.1285.2714.0871.0613.1973.0919.3306.0919Z" fill="#e2e8f0"/><path d="M31.9534,54.5258v-3.1344h.8694v3.1344h-.8694Zm.4367-3.5384c-.1292,0-.2401-.0429-.3326-.1286-.0911-.087-.1367-.1911-.1367-.3122c0-.1197.0456-.2224.1367-.3081.0925-.0871.2034-.1306.3326-.1306.1293,0,.2395.0435.3306.1306.0925.0857.1388.1884.1388.3081c0,.1211-.0463.2252-.1388.3122-.0911.0857-.2013.1286-.3306.1286Z" fill="#e2e8f0"/><path d="M34.6741,54.5769c-.2381,0-.4537-.0613-.6469-.1837-.1918-.1238-.3442-.3054-.4571-.5448-.1115-.2408-.1673-.536-.1673-.8857c0-.3591.0578-.6577.1735-.8958.1156-.2394.2693-.4183.4611-.5367.1932-.1197.4048-.1796.6347-.1796.1755,0,.3217.03.4387.0898.1184.0585.2136.132.2857.2204.0735.0871.1292.1728.1673.2571h.0266v-1.5713h.8672v4.1792h-.857v-.502h-.0368c-.0408.0871-.0986.1735-.1734.2592-.0735.0844-.1694.1544-.2878.2102-.117.0558-.2598.0837-.4285.0837Zm.2755-.6918c.1401,0,.2585-.0381.3551-.1143.0979-.0775.1727-.1857.2244-.3244.0531-.1388.0796-.3014.0796-.4878c0-.1863-.0258-.3482-.0775-.4856s-.1265-.2435-.2245-.3184-.217-.1122-.3571-.1122c-.1428,0-.2632.0388-.3612.1163s-.1721.185-.2224.3224-.0755.2966-.0755.4775c0,.1823.0251.3435.0755.4837.0517.1387.1258.2476.2224.3265.098.0775.2184.1163.3612.1163Z" fill="#e2e8f0"/><path d="M38.5187,50.3466h1.0897l1.1509,2.8079h.0489l1.151-2.8079h1.0897v4.1792h-.8571v-2.7201h-.0347l-1.0815,2.6997h-.5837l-1.0815-2.7099h-.0347v2.7303h-.857v-4.1792Z" fill="#e2e8f0"/><path d="M45.189,54.5871c-.3225,0-.6-.0653-.8326-.1959-.2313-.132-.4095-.3184-.5347-.5592-.1251-.2421-.1877-.5285-.1877-.8591c0-.3224.0626-.6054.1877-.8489s.3014-.4333.5286-.5693c.2285-.1361.4965-.2041.804-.2041.2068,0,.3993.0334.5775.1.1795.0653.336.1639.4693.2959.1347.132.2394.2979.3143.4979.0748.1986.1122.4313.1122.6979v.2388h-2.6467v-.5388h1.8284c0-.1251-.0272-.236-.0816-.3326s-.1299-.1721-.2265-.2265c-.0953-.0558-.2061-.0837-.3326-.0837-.132,0-.249.0307-.351.0919-.1007.0598-.1796.1408-.2367.2428-.0572.1007-.0864.2129-.0878.3367v.5122c0,.1551.0286.2891.0857.402.0585.1129.1408.2.2469.2612s.232.0918.3775.0918c.0966,0,.1851-.0136.2653-.0408.0803-.0272.149-.068.2061-.1224.0572-.0544.1007-.1211.1306-.2l.804.0531c-.0408.1931-.1244.3618-.251.506-.1251.1429-.287.2544-.4856.3347-.1973.0789-.4252.1184-.6836.1184Z" fill="#e2e8f0"/><path d="M48.3499,54.5769c-.2381,0-.4537-.0613-.6469-.1837-.1918-.1238-.3442-.3054-.4571-.5448-.1115-.2408-.1673-.536-.1673-.8857c0-.3591.0578-.6577.1734-.8958.1157-.2394.2694-.4183.4612-.5367.1932-.1197.4047-.1796.6347-.1796.1755,0,.3217.03.4387.0898.1183.0585.2136.132.2857.2204.0734.0871.1292.1728.1673.2571h.0265v-1.5713h.8673v4.1792h-.8571v-.502h-.0367c-.0408.0871-.0986.1735-.1734.2592-.0735.0844-.1694.1544-.2878.2102-.117.0558-.2598.0837-.4285.0837Zm.2755-.6918c.1401,0,.2585-.0381.3551-.1143.0979-.0775.1727-.1857.2244-.3244.0531-.1388.0796-.3014.0796-.4878c0-.1863-.0258-.3482-.0775-.4856s-.1266-.2435-.2245-.3184c-.098-.0748-.217-.1122-.3571-.1122-.1429,0-.2633.0388-.3612.1163-.098.0776-.1721.185-.2224.3224-.0504.1374-.0755.2966-.0755.4775c0,.1823.0251.3435.0755.4837.0517.1387.1258.2476.2224.3265.0979.0775.2183.1163.3612.1163Z" fill="#e2e8f0"/><path d="M50.8481,54.5258v-3.1344h.8693v3.1344h-.8693Zm.4367-3.5384c-.1292,0-.2401-.0429-.3326-.1286-.0911-.087-.1367-.1911-.1367-.3122c0-.1197.0456-.2224.1367-.3081.0925-.0871.2034-.1306.3326-.1306.1293,0,.2395.0435.3306.1306.0925.0857.1388.1884.1388.3081c0,.1211-.0463.2252-.1388.3122-.0911.0857-.2013.1286-.3306.1286Z" fill="#e2e8f0"/><path d="M53.3076,54.585c-.2,0-.3782-.0347-.5346-.104-.1565-.0708-.2803-.1749-.3714-.3123-.0898-.1387-.1347-.3115-.1347-.5183c0-.1741.032-.3204.0959-.4387.0639-.1184.151-.2136.2612-.2857s.2353-.1265.3755-.1633c.1415-.0367.2897-.0625.4448-.0775.1823-.019.3292-.0367.4408-.0531.1116-.0176.1925-.0435.2428-.0775.0504-.034.0755-.0843.0755-.151v-.0123c0-.1292-.0408-.2292-.1224-.2999-.0803-.0708-.1945-.1061-.3428-.1061-.1565,0-.2809.0347-.3735.104-.0925.0681-.1537.1538-.1836.2572l-.804-.0653c.0408-.1905.1211-.3551.2408-.4939.1197-.1401.2741-.2476.4632-.3224.1905-.0762.4108-.1143.6612-.1143.1741,0,.3407.0204.4999.0612.1605.0409.3027.1041.4265.1898.1252.0857.2238.1959.2959.3306.0721.1333.1081.2932.1081.4796v2.114h-.8244v-.4346h-.0245c-.0503.0979-.1176.1843-.202.2592-.0843.0734-.1857.1312-.304.1734-.1184.0408-.2551.0612-.4102.0612Zm.249-.5999c.1278,0,.2408-.0252.3387-.0755.098-.0517.1748-.1211.2306-.2082.0558-.087.0837-.1857.0837-.2959v-.3326c-.0272.0177-.0647.034-.1123.049-.0462.0136-.0986.0265-.1571.0388-.0585.0108-.117.0211-.1755.0306-.0585.0081-.1115.0156-.1592.0224-.102.015-.1911.0388-.2673.0714s-.1353.0769-.1775.1327c-.0422.0544-.0633.1224-.0633.204c0,.1184.0429.2089.1286.2714.087.0613.1972.0919.3306.0919Z" fill="#e2e8f0"/><path d="M56.9343,51.0751v-.7285h3.4324v.7285h-1.2795v3.4507h-.8734v-3.4507h-1.2795Z" fill="#e2e8f0"/><path d="M60.5901,54.5258v-3.1344h.8428v.5469h.0326c.0572-.1945.1531-.3414.2878-.4407.1346-.1007.2897-.1511.4652-.1511.0436,0,.0905.0028.1408.0082.0504.0054.0946.0129.1327.0225v.7713c-.0408-.0122-.0973-.0231-.1694-.0326-.0721-.0096-.1381-.0143-.1979-.0143-.1279,0-.2422.0279-.3429.0836-.0993.0545-.1782.1306-.2367.2286-.0571.0979-.0857.2109-.0857.3387v1.7733h-.8693Z" fill="#e2e8f0"/><path d="M63.7454,54.585c-.2,0-.3782-.0347-.5346-.104-.1565-.0708-.2803-.1749-.3714-.3123-.0898-.1387-.1347-.3115-.1347-.5183c0-.1741.032-.3204.0959-.4387.064-.1184.151-.2136.2612-.2857s.2354-.1265.3755-.1633c.1415-.0367.2898-.0625.4448-.0775.1823-.019.3293-.0367.4408-.0531.1116-.0176.1925-.0435.2429-.0775s.0755-.0843.0755-.151v-.0123c0-.1292-.0409-.2292-.1225-.2999-.0802-.0708-.1945-.1061-.3428-.1061-.1565,0-.2809.0347-.3734.104-.0925.0681-.1538.1538-.1837.2572l-.804-.0653c.0408-.1905.1211-.3551.2408-.4939.1197-.1401.2741-.2476.4632-.3224.1905-.0762.4109-.1143.6612-.1143.1741,0,.3408.0204.4999.0612.1606.0409.3027.1041.4265.1898.1252.0857.2238.1959.2959.3306.0721.1333.1082.2932.1082.4796v2.114h-.8244v-.4346h-.0245c-.0504.0979-.1177.1843-.2021.2592-.0843.0734-.1857.1312-.304.1734-.1184.0408-.2551.0612-.4102.0612Zm.249-.5999c.1279,0,.2408-.0252.3387-.0755.098-.0517.1748-.1211.2306-.2082.0558-.087.0837-.1857.0837-.2959v-.3326c-.0272.0177-.0646.034-.1123.049-.0462.0136-.0986.0265-.1571.0388-.0585.0108-.117.0211-.1755.0306-.0585.0081-.1115.0156-.1591.0224-.1021.015-.1912.0388-.2674.0714s-.1353.0769-.1775.1327c-.0422.0544-.0633.1224-.0633.204c0,.1184.0429.2089.1286.2714.0871.0613.1973.0919.3306.0919Z" fill="#e2e8f0"/><path d="M67.8706,51.3914v.653h-1.9346v-.653h1.9346Zm-1.4917,3.1344v-3.3609c0-.2272.0442-.4156.1326-.5652.0898-.1497.2122-.2619.3673-.3367s.3313-.1123.5285-.1123c.1333,0,.2551.0102.3653.0306.1116.0205.1945.0388.249.0551l-.1551.653c-.034-.0108-.0762-.021-.1265-.0306-.049-.0095-.0994-.0143-.1511-.0143-.1278,0-.2169.03-.2673.0898-.0503.0585-.0755.1408-.0755.247v3.3445h-.8672Z" fill="#e2e8f0"/><path d="M70.0872,51.3914v.653h-1.9345v-.653h1.9345Zm-1.4917,3.1344v-3.3609c0-.2272.0442-.4156.1326-.5652.0898-.1497.2123-.2619.3673-.3367.1551-.0749.3313-.1123.5286-.1123.1333,0,.255.0102.3652.0306.1116.0205.1946.0388.249.0551l-.1551.653c-.034-.0108-.0762-.021-.1265-.0306-.049-.0095-.0993-.0143-.151-.0143-.1279,0-.217.03-.2673.0898-.0504.0585-.0755.1408-.0755.247v3.3445h-.8673Z" fill="#e2e8f0"/><path d="M70.6183,54.5258v-3.1344h.8693v3.1344h-.8693Zm.4367-3.5384c-.1293,0-.2402-.0429-.3327-.1286-.0911-.087-.1367-.1911-.1367-.3122c0-.1197.0456-.2224.1367-.3081.0925-.0871.2034-.1306.3327-.1306.1292,0,.2394.0435.3305.1306.0925.0857.1388.1884.1388.3081c0,.1211-.0463.2252-.1388.3122-.0911.0857-.2013.1286-.3305.1286Z" fill="#e2e8f0"/><path d="M73.6001,54.5871c-.321,0-.5972-.0681-.8285-.2041-.2299-.1374-.4067-.3279-.5305-.5714-.1225-.2435-.1837-.5237-.1837-.8407c0-.3211.0619-.6027.1857-.8448.1252-.2436.3027-.4333.5326-.5694.2299-.1374.5034-.2061.8203-.2061.2735,0,.5129.0497.7183.149.2055.0993.368.2387.4878.4183s.1857.3905.1979.6326h-.8203c-.0232-.1564-.0844-.2823-.1837-.3775-.0979-.0966-.2265-.1449-.3857-.1449-.1346,0-.2523.0367-.353.1102-.0993.0721-.1769.1775-.2326.3163s-.0837.3068-.0837.504c0,.2.0272.3701.0816.5102.0558.1401.134.2469.2347.3204.1007.0734.2184.1102.353.1102.0993,0,.1884-.0204.2674-.0612.0802-.0409.1462-.1.1979-.1776.0531-.0789.0877-.1734.1041-.2836h.8203c-.0136.2394-.0789.4503-.1959.6326-.1156.1809-.2755.3224-.4795.4244-.2041.102-.4456.1531-.7245.1531Z" fill="#e2e8f0"/><path d="M312,76.5064c0,0-185,0-199.5,0s-18.5-29.0001-32.5-28.5" fill="none" stroke="#334155" stroke-width="5" stroke-opacity="0.2" stroke-linecap="round"/><g mask="url(#ehLfzAtpDdT27)"><g><path d="M192,19.4999l-80-.0001c-14.5,0-18.5,29.0002-32.5,28.5001" fill="none" stroke="#3b82f6" stroke-width="5" stroke-linecap="round"/><circle id="ehLfzAtpDdT26" r="4" transform="translate(74 48.006187)" fill="#2563eb" fill-opacity="0.5"/></g><mask id="ehLfzAtpDdT27" mask-type="alpha" x="-150%" y="-150%" height="400%" width="400%"><path d="M192,19.4999l-80-.0001c-14.5,0-18.5,29.0002-32.5,28.5001" transform="translate(0 0.000001)" fill="none" stroke="#3b82f6" stroke-width="5" stroke-linecap="round"/></mask></g><circle r="1.5" transform="translate(109.5 19.5)" fill="#e2e8f0"/><circle r="1.5" transform="translate(109.5 76.5)" fill="#e2e8f0"/><circle r="1.5" transform="translate(229.5 76.5)" fill="#e2e8f0"/><circle r="1.5" transform="translate(149.5 19.5)" fill="#e2e8f0"/><circle r="1.5" transform="translate(149.5 76.5)" fill="#e2e8f0"/><circle r="1.5" transform="translate(269.5 76.5)" fill="#e2e8f0"/><circle r="1.5" transform="translate(189.5 19.5)" fill="#e2e8f0"/><circle r="1.5" transform="translate(189.5 76.5)" fill="#e2e8f0"/><circle r="1.5" transform="translate(309.5 76.5)" fill="#e2e8f0"/><path d="M25.5767,21h-1.1772v-3.6364h1.2145c.3563,0,.6623.0728.918.2184.2556.1444.4515.3522.5877.6233.1373.2698.2059.5936.2059.9712c0,.3788-.0692.7043-.2077.9766-.1373.2722-.3362.4817-.5966.6285-.2604.1456-.5753.2184-.9446.2184Zm-.6285-.4794h.5983c.277,0,.5072-.0521.6907-.1563.1835-.1053.3208-.2574.4119-.4563.0912-.2.1368-.4439.1368-.7315c0-.2853-.0456-.5274-.1368-.7262-.0899-.1989-.2243-.3498-.403-.4528s-.4007-.1545-.6658-.1545h-.6321v2.6776Zm3.6084-3.157v3.6364h-.5487v-3.6364h.5487Zm1.1168,0l1.0121,2.9617h.0408l1.0121-2.9617h.593L31.0228,21h-.6339l-1.3086-3.6364h.5931ZM32.8565,21v-3.6364h2.2799v.4723h-1.7312v1.108h1.6122v.4705h-1.6122v1.1133h1.7525v.4723h-2.3012Zm3.0127,0v-3.6364h1.2962c.2817,0,.5155.0486.7013.1456.1871.0971.3267.2314.4191.4031.0923.1704.1385.3675.1385.5913c0,.2225-.0468.4184-.1403.5877-.0923.1681-.232.2989-.419.3924-.1859.0935-.4197.1402-.7014.1402h-.9819v-.4723h.9322c.1776,0,.322-.0254.4332-.0763.1125-.0509.1948-.1249.2468-.222s.0782-.2136.0782-.3497c0-.1374-.0267-.2563-.0799-.3569-.0521-.1007-.1344-.1776-.2468-.2309-.1113-.0544-.2575-.0816-.4386-.0816h-.6889v3.1658h-.5487Zm1.7951-1.6406L38.5628,21h-.625l-.8807-1.6406h.6072Zm1.2483-1.5235v-.4723h2.8142v.4723h-1.1346v3.1641h-.5468v-3.1641h-1.1328Zm4.7168.4368h.5308v2.9049c0,.1822-.0331.3361-.0994.4616-.0651.1255-.1622.2208-.2912.2859-.1278.0651-.2858.0976-.4741.0976-.0189,0-.0367,0-.0532,0-.0178,0-.0361-.0006-.0551-.0017v-.4564c.0166,0,.0314,0,.0444,0c.0119,0,.0255,0,.0409,0c.1254,0,.216-.0337.2716-.1012.0568-.0663.0853-.1627.0853-.2894v-2.9013Zm.2627-.4208c-.0923,0-.1716-.0308-.2379-.0923-.0651-.0627-.0976-.1373-.0976-.2237c0-.0876.0325-.1622.0976-.2238.0663-.0627.1456-.0941.2379-.0941s.1711.0314.2362.0941c.0663.0616.0994.1362.0994.2238c0,.0864-.0331.161-.0994.2237-.0651.0615-.1438.0923-.2362.0923Zm2.1312,3.2031c-.2557,0-.4789-.0586-.6694-.1757-.1906-.1172-.3386-.2812-.4439-.4919s-.158-.4569-.158-.7386c0-.2829.0526-.5303.158-.7422s.2533-.3764.4439-.4936c.1905-.1172.4137-.1758.6694-.1758s.4788.0586.6693.1758c.1906.1172.3386.2817.4439.4936.1054.2119.1581.4593.1581.7422c0,.2817-.0527.5279-.1581.7386-.1053.2107-.2533.3747-.4439.4919-.1905.1171-.4137.1757-.6693.1757Zm.0017-.4456c.1658,0,.3031-.0438.412-.1314s.1894-.2042.2414-.3498c.0533-.1456.0799-.306.0799-.4812c0-.174-.0266-.3338-.0799-.4794-.052-.1468-.1325-.2645-.2414-.3533s-.2462-.1332-.412-.1332c-.1669,0-.3054.0444-.4154.1332-.1089.0888-.19.2065-.2433.3533-.0521.1456-.0781.3054-.0781.4794c0,.1752.026.3356.0781.4812.0533.1456.1344.2622.2433.3498.11.0876.2485.1314.4154.1314Zm3.5898-.7404v-1.5963h.5327v2.7273h-.5221v-.4723h-.0284c-.0627.1456-.1633.2669-.3018.364-.1373.0959-.3084.1438-.5132.1438-.1751,0-.3302-.0385-.4651-.1154-.1338-.0781-.2392-.1935-.3161-.3462-.0758-.1527-.1136-.3415-.1136-.5664v-1.7348h.5309v1.6708c0,.1859.0514.3338.1544.4439s.2368.1652.4013.1652c.0994,0,.1983-.0249.2965-.0746.0995-.0497.1817-.1249.2468-.2255.0663-.1006.0989-.2285.0977-.3835ZM50.8608,21v-2.7273h.5131v.4333h.0284c.0498-.1468.1374-.2622.2628-.3463.1267-.0852.2699-.1278.4297-.1278.0332,0,.0722.0012.1172.0035.0462.0024.0823.0054.1083.0089v.5078c-.0213-.0059-.0592-.0124-.1136-.0195-.0545-.0083-.1089-.0124-.1634-.0124-.1254,0-.2373.0266-.3356.0799-.097.0521-.174.1249-.2308.2184-.0568.0923-.0852.1976-.0852.316v1.6655h-.5309Zm2.4498-1.6193v1.6193h-.5309v-2.7273h.5096v.4439h.0338c.0627-.1444.1609-.2604.2947-.348.135-.0876.3048-.1314.5096-.1314.1858,0,.3486.0391.4883.1172.1397.0769.248.1918.3249.3445s.1154.3415.1154.5664v1.7347h-.5309v-1.6708c0-.1977-.0515-.3522-.1545-.4634-.1029-.1125-.2444-.1687-.4243-.1687-.1231,0-.2326.0266-.3285.0799-.0947.0533-.1699.1314-.2255.2344-.0544.1018-.0817.2249-.0817.3693Zm3.6328,1.6743c-.2687,0-.5001-.0574-.6942-.1722-.1929-.116-.3421-.2788-.4474-.4883-.1042-.2107-.1563-.4575-.1563-.7404c0-.2793.0521-.5255.1563-.7386.1053-.2131.2521-.3794.4403-.499.1894-.1195.4107-.1793.6641-.1793.1538,0,.303.0255.4474.0764s.274.1308.3889.2397.2053.2503.2716.4243c.0663.1728.0994.383.0994.6304v.1882h-2.1679v-.3978h1.6477c0-.1396-.0284-.2633-.0852-.3711-.0568-.1089-.1367-.1947-.2397-.2574-.1018-.0628-.2214-.0941-.3587-.0941-.1491,0-.2793.0367-.3906.1101-.1101.0722-.1953.1669-.2557.2841-.0592.116-.0888.242-.0888.3782v.3107c0,.1823.032.3373.0959.4652.0651.1278.1557.2255.2717.2929.116.0663.2515.0995.4066.0995.1006,0,.1923-.0142.2752-.0426.0828-.0296.1545-.0734.2148-.1314.0604-.058.1066-.1296.1385-.2149l.5025.0906c-.0402.1479-.1124.2776-.2166.3888-.103.1101-.2326.1959-.3889.2575-.155.0604-.332.0905-.5309.0905Zm2.0166.9677c-.0793,0-.1515-.0065-.2166-.0195-.0651-.0118-.1136-.0249-.1456-.0391l.1279-.435c.097.0261.1835.0373.2592.0338s.1426-.032.2006-.0853c.0592-.0532.1113-.1402.1563-.261l.0657-.1811-.9979-2.7628h.5682l.6907,2.1165h.0284l.6907-2.1165h.57l-1.124,3.0913c-.0521.142-.1183.2622-.1988.3604-.0805.0995-.1764.174-.2877.2238-.1112.0497-.2403.0745-.3871.0745Z" fill="#94a3b8"/><path d="M3.41974,75.5462h-.55397c-.02131-.1184-.06096-.2226-.11897-.3125-.058-.09-.12902-.1663-.21306-.2291-.08405-.0627-.17815-.1101-.28232-.142-.10298-.032-.21248-.048-.32848-.048-.20952,0-.39714.0527-.56285.1581-.16454.1053-.29475.2598-.39063.4634-.094697.2036-.142045.4522-.142045.7457c0,.2959.047348.5457.142045.7493.09588.2036.22668.3575.3924.4617s.35216.1562.5593.1562c.11482,0,.22373-.0154.32671-.0462.10417-.0319.19827-.0787.28231-.1402.08405-.0616.15507-.1367.21307-.2255.05919-.09.10003-.193.12252-.309l.55397.0018c-.02959.1787-.087.3433-.17223.4936-.08404.1492-.19235.2782-.32492.3871-.1314.1077-.28173.1912-.451.2503-.16927.0592-.35393.0888-.55398.0888-.31486,0-.5954-.0746-.84162-.2237-.246208-.1503-.440337-.3652-.582382-.6445-.140862-.2794-.211293-.6126-.211293-.9997c0-.3882.071023-.7215.213069-.9996.142045-.2794.336174-.4936.582386-.6428.24621-.1503.52616-.2255.83984-.2255.19295,0,.37287.0278.53978.0835.16808.0544.31901.1349.45277.2414.13376.1054.24443.2344.33203.3871.08759.1515.14678.325.17755.5203ZM5.76127,76.869v-1.5963h.53268v2.7273h-.52202v-.4723h-.02841c-.06274.1456-.16335.2669-.30185.364-.13731.0959-.30835.1438-.51314.1438-.17519,0-.33025-.0385-.4652-.1154-.13375-.0781-.23911-.1935-.31605-.3462-.07575-.1527-.11363-.3415-.11363-.5664v-1.7348h.53089v1.6708c0,.1859.05149.3338.15448.4439s.23674.1652.40127.1652c.09944,0,.19828-.0249.29652-.0746.09944-.0497.1817-.1249.24681-.2255.06629-.1006.09884-.2285.09765-.3835ZM7.00728,78v-2.7273h.51314v.4333h.02841c.04971-.1468.13731-.2622.26278-.3463.12666-.0852.26989-.1278.42969-.1278.03314,0,.07221.0012.11719.0035.04616.0024.08227.0054.10831.0089v.5078c-.02131-.0059-.05919-.0124-.11364-.0195-.05445-.0083-.1089-.0124-.16335-.0124-.12548,0-.23734.0266-.33558.0799-.09707.0521-.17401.1249-.23083.2184-.05682.0923-.08523.1976-.08523.316v1.6655h-.53089Zm1.91895,0v-2.7273h.51313v.4333h.02841c.04972-.1468.13731-.2622.26279-.3463.12665-.0852.26984-.1278.42964-.1278.0332,0,.0723.0012.1172.0035.0462.0024.0823.0054.1083.0089v.5078c-.0213-.0059-.0591-.0124-.1136-.0195-.0544-.0083-.1089-.0124-.1633-.0124-.12552,0-.23738.0266-.33563.0799-.09706.0521-.174.1249-.23082.2184-.05682.0923-.08523.1976-.08523.316v1.6655h-.53089Zm2.99667.055c-.2687,0-.5001-.0574-.6942-.1722-.193-.116-.3421-.2788-.4475-.4883-.1041-.2107-.1562-.4575-.1562-.7404c0-.2793.0521-.5255.1562-.7386.1054-.2131.2522-.3794.4404-.499.1894-.1195.4107-.1793.6641-.1793.1538,0,.303.0255.4474.0764s.274.1308.3888.2397c.1149.1089.2054.2503.2717.4243.0663.1728.0994.383.0994.6304v.1882h-2.1679v-.3978h1.6477c0-.1396-.0284-.2633-.0852-.3711-.0568-.1089-.1367-.1947-.2397-.2574-.1018-.0628-.2214-.0941-.3587-.0941-.1491,0-.2794.0367-.3906.1101-.1101.0722-.1953.1669-.2557.2841-.0592.116-.0888.242-.0888.3782v.3107c0,.1823.032.3373.0959.4652.0651.1278.1557.2255.2717.2929.116.0663.2515.0995.4066.0995.1006,0,.1923-.0142.2752-.0426.0828-.0296.1545-.0734.2148-.1314s.1066-.1296.1385-.2149l.5025.0906c-.0402.1479-.1124.2776-.2166.3888-.103.1101-.2326.1959-.3889.2575-.155.0604-.332.0905-.5309.0905Zm2.2901-1.6743v1.6193h-.5309v-2.7273h.5096v.4439h.0337c.0627-.1444.161-.2604.2948-.348.1349-.0876.3048-.1314.5095-.1314.1859,0,.3486.0391.4883.1172.1397.0769.248.1918.325.3445s.1154.3415.1154.5664v1.7347h-.5309v-1.6708c0-.1977-.0515-.3522-.1545-.4634-.103-.1125-.2444-.1687-.4244-.1687-.1231,0-.2326.0266-.3284.0799-.0947.0533-.1699.1314-.2255.2344-.0545.1018-.0817.2249-.0817.3693Zm3.7304-1.108v.4262h-1.4897v-.4262h1.4897Zm-1.0902-.6534h.5309v2.5799c0,.103.0154.1805.0462.2326.0308.0509.0704.0858.119.1048.0497.0177.1035.0266.1615.0266.0427,0,.0799-.0029.1119-.0089.032-.0059.0568-.0106.0746-.0142l.0959.4386c-.0308.0118-.0746.0237-.1314.0355-.0568.013-.1279.0201-.2131.0213-.1397.0024-.2699-.0225-.3906-.0746-.1208-.052-.2184-.1325-.293-.2414s-.1119-.2457-.1119-.4102v-2.69Zm3.0008,4.4034v-3.75h.5184v.4421h.0444c.0308-.0568.0752-.1225.1332-.197s.1385-.1397.2415-.1954c.1029-.0568.2391-.0852.4083-.0852.2202,0,.4167.0557.5895.1669.1729.1113.3084.2717.4066.4812.0995.2095.1492.4616.1492.7564s-.0491.5475-.1474.7582c-.0982.2095-.2332.3711-.4048.4847-.1717.1124-.3676.1687-.5877.1687-.1658,0-.3013-.0279-.4066-.0835-.1042-.0556-.1859-.1207-.2451-.1953s-.1047-.1409-.1367-.1989h-.0319v1.4471h-.5309Zm.5202-2.3863c0,.1917.0278.3598.0835.5042s.1361.2575.2414.3392c.1054.0805.2344.1207.3871.1207.1586,0,.2912-.042.3977-.1261.1066-.0852.1871-.2006.2415-.3462.0556-.1456.0835-.3095.0835-.4918c0-.18-.0273-.3415-.0817-.4848-.0533-.1432-.1338-.2562-.2415-.3391-.1065-.0829-.2397-.1243-.3995-.1243-.1539,0-.2841.0397-.3906.119-.1054.0793-.1853.19-.2397.332s-.0817.3078-.0817.4972Zm3.3594,1.424c-.1728,0-.3291-.032-.4688-.0959-.1397-.0651-.2503-.1592-.332-.2823-.0805-.1231-.1207-.2741-.1207-.4528c0-.1539.0295-.2805.0887-.38s.1391-.1781.2397-.2361.2131-.1018.3374-.1314.2509-.0521.38-.0675c.1633-.0189.2959-.0343.3977-.0461.1018-.0131.1758-.0338.2219-.0622.0462-.0284.0693-.0746.0693-.1385v-.0124c0-.1551-.0438-.2752-.1314-.3605-.0864-.0852-.2154-.1278-.3871-.1278-.1787,0-.3196.0397-.4226.119-.1018.0781-.1722.1651-.2113.261l-.4989-.1137c.0592-.1657.1456-.2994.2592-.4012.1149-.103.2468-.1776.396-.2238.1491-.0473.306-.071.4705-.071.1089,0,.2243.013.3463.0391.1231.0248.2379.071.3444.1385.1077.0674.1959.1639.2646.2894.0686.1243.103.2859.103.4847v1.8111h-.5185v-.3729h-.0213c-.0343.0687-.0858.1362-.1545.2024-.0686.0663-.1568.1214-.2646.1652s-.2367.0657-.387.0657Zm.1154-.4262c.1468,0,.2722-.029.3764-.087.1054-.058.1853-.1337.2397-.2272.0556-.0947.0835-.1959.0835-.3037v-.3515c-.019.0189-.0557.0367-.1101.0532-.0533.0154-.1143.029-.1829.0409-.0687.0106-.1355.0207-.2006.0302-.0652.0082-.1196.0154-.1634.0213-.103.013-.1971.0349-.2823.0657-.0841.0307-.1515.0751-.2024.1331-.0497.0569-.0746.1326-.0746.2273c0,.1314.0485.2308.1456.2983.0971.0663.2208.0994.3711.0994ZM25.7866,78v-2.7273h.5309v2.7273h-.5309Zm.2681-3.1481c-.0923,0-.1717-.0308-.2379-.0923-.0651-.0627-.0977-.1373-.0977-.2237c0-.0876.0326-.1622.0977-.2238.0662-.0627.1456-.0941.2379-.0941s.171.0314.2361.0941c.0663.0616.0995.1362.0995.2238c0,.0864-.0332.161-.0995.2237-.0651.0615-.1438.0923-.2361.0923Zm1.9979,3.2014c-.2201,0-.4166-.0563-.5894-.1687-.1717-.1136-.3066-.2752-.4049-.4847-.097-.2107-.1456-.4635-.1456-.7582s.0492-.5469.1474-.7564c.0994-.2095.2356-.3699.4084-.4812.1728-.1112.3687-.1669.5877-.1669.1693,0,.3054.0284.4084.0852.1041.0557.1846.1208.2415.1954.058.0745.1029.1402.1349.197h.032v-1.3512h.5309v3.6364h-.5185v-.4244h-.0444c-.032.058-.0781.1243-.1385.1989-.0592.0746-.1409.1397-.245.1953s-.2391.0835-.4049.0835Zm.1172-.4528c.1527,0,.2818-.0402.3871-.1207.1065-.0817.187-.1948.2415-.3392.0556-.1444.0834-.3125.0834-.5042c0-.1894-.0272-.3552-.0816-.4972s-.1344-.2527-.2397-.332-.2356-.119-.3907-.119c-.1598,0-.2929.0414-.3995.1243s-.187.1959-.2414.3391c-.0533.1433-.0799.3048-.0799.4848c0,.1823.0272.3462.0816.4918s.135.261.2415.3462c.1077.0841.2403.1261.3977.1261ZM31.4848,78v-2.7273h.5096v.4439h.0337c.0569-.1503.1498-.2675.2788-.3515.129-.0853.2835-.1279.4634-.1279.1823,0,.335.0426.4581.1279.1243.0852.2161.2024.2752.3515h.0284c.0652-.1456.1687-.2616.3108-.348.142-.0876.3113-.1314.5078-.1314.2474,0,.4492.0775.6055.2326.1574.1551.2361.3889.2361.7014v1.8288h-.5309v-1.7791c0-.1847-.0503-.3184-.1509-.4013s-.2208-.1243-.3605-.1243c-.1728,0-.3071.0533-.403.1598-.0959.1054-.1438.2409-.1438.4066v1.7383h-.5291v-1.8129c0-.1479-.0462-.2669-.1385-.3568s-.2125-.135-.3605-.135c-.1006,0-.1935.0266-.2787.0799-.0841.0521-.1522.1249-.2042.2184-.0509.0935-.0764.2018-.0764.3249v1.6815h-.5309Zm5.5944.055c-.2687,0-.5001-.0574-.6943-.1722-.1929-.116-.342-.2788-.4474-.4883-.1042-.2107-.1563-.4575-.1563-.7404c0-.2793.0521-.5255.1563-.7386.1054-.2131.2521-.3794.4403-.499.1894-.1195.4108-.1793.6641-.1793.1539,0,.303.0255.4474.0764.1445.0509.2741.1308.3889.2397s.2054.2503.2717.4243c.0662.1728.0994.383.0994.6304v.1882h-2.168v-.3978h1.6477c0-.1396-.0284-.2633-.0852-.3711-.0568-.1089-.1367-.1947-.2397-.2574-.1018-.0628-.2213-.0941-.3586-.0941-.1492,0-.2794.0367-.3907.1101-.1101.0722-.1953.1669-.2557.2841-.0591.116-.0887.242-.0887.3782v.3107c0,.1823.0319.3373.0958.4652.0652.1278.1557.2255.2717.2929.116.0663.2516.0995.4066.0995.1006,0,.1924-.0142.2752-.0426.0829-.0296.1545-.0734.2149-.1314s.1065-.1296.1385-.2149l.5025.0906c-.0403.1479-.1125.2776-.2167.3888-.1029.1101-.2326.1959-.3888.2575-.1551.0604-.332.0905-.5309.0905Zm2.7801-.0017c-.2202,0-.4167-.0563-.5895-.1687-.1716-.1136-.3066-.2752-.4048-.4847-.0971-.2107-.1456-.4635-.1456-.7582s.0491-.5469.1473-.7564c.0995-.2095.2356-.3699.4084-.4812.1728-.1112.3688-.1669.5877-.1669.1693,0,.3054.0284.4084.0852.1042.0557.1847.1208.2415.1954.058.0745.103.1402.1349.197h.032v-1.3512h.5309v3.6364h-.5185v-.4244h-.0444c-.0319.058-.0781.1243-.1385.1989-.0591.0746-.1408.1397-.245.1953s-.2391.0835-.4048.0835Zm.1172-.4528c.1527,0,.2817-.0402.387-.1207.1066-.0817.1871-.1948.2415-.3392.0557-.1444.0835-.3125.0835-.5042c0-.1894-.0272-.3552-.0817-.4972s-.1344-.2527-.2397-.332c-.1054-.0793-.2356-.119-.3906-.119-.1598,0-.293.0414-.3995.1243s-.1871.1959-.2415.3391c-.0533.1433-.0799.3048-.0799.4848c0,.1823.0272.3462.0817.4918s.1349.261.2414.3462c.1078.0841.2403.1261.3978.1261ZM41.9682,78v-2.7273h.5309v2.7273h-.5309Zm.2681-3.1481c-.0923,0-.1716-.0308-.2379-.0923-.0651-.0627-.0977-.1373-.0977-.2237c0-.0876.0326-.1622.0977-.2238.0663-.0627.1456-.0941.2379-.0941s.1711.0314.2362.0941c.0663.0616.0994.1362.0994.2238c0,.0864-.0331.161-.0994.2237-.0651.0615-.1438.0923-.2362.0923Zm1.7707,3.2085c-.1728,0-.3291-.032-.4687-.0959-.1397-.0651-.2504-.1592-.3321-.2823-.0805-.1231-.1207-.2741-.1207-.4528c0-.1539.0296-.2805.0888-.38s.1391-.1781.2397-.2361.213-.1018.3373-.1314.251-.0521.38-.0675c.1634-.0189.2959-.0343.3977-.0461.1018-.0131.1758-.0338.222-.0622s.0692-.0746.0692-.1385v-.0124c0-.1551-.0438-.2752-.1314-.3605-.0864-.0852-.2154-.1278-.387-.1278-.1788,0-.3196.0397-.4226.119-.1018.0781-.1723.1651-.2113.261l-.499-.1137c.0592-.1657.1456-.2994.2593-.4012.1148-.103.2468-.1776.3959-.2238.1492-.0473.306-.071.4706-.071.1089,0,.2243.013.3462.0391.1231.0248.2379.071.3445.1385.1077.0674.1959.1639.2645.2894.0687.1243.103.2859.103.4847v1.8111h-.5185v-.3729h-.0213c-.0343.0687-.0858.1362-.1545.2024-.0686.0663-.1568.1214-.2645.1652s-.2368.0657-.3871.0657Zm.1154-.4262c.1468,0,.2723-.029.3764-.087.1054-.058.1853-.1337.2397-.2272.0557-.0947.0835-.1959.0835-.3037v-.3515c-.0189.0189-.0556.0367-.1101.0532-.0533.0154-.1142.029-.1829.0409-.0686.0106-.1355.0207-.2006.0302-.0651.0082-.1196.0154-.1634.0213-.1029.013-.197.0349-.2823.0657-.084.0307-.1515.0751-.2024.1331-.0497.0569-.0746.1326-.0746.2273c0,.1314.0486.2308.1456.2983.0971.0663.2208.0994.3711.0994Zm5.3045-1.6956l-.4811.0852c-.0202-.0616-.0521-.1202-.0959-.1758-.0426-.0556-.1006-.1012-.174-.1367s-.1652-.0533-.2752-.0533c-.1504,0-.2758.0338-.3765.1012-.1006.0663-.1509.1521-.1509.2575c0,.0911.0337.1645.1012.2202.0675.0556.1764.1012.3267.1367l.4333.0994c.2509.058.4379.1474.561.2681.1231.1208.1847.2776.1847.4705c0,.1634-.0473.309-.142.4368-.0936.1267-.2244.2261-.3924.2983-.1669.0722-.3605.1083-.5807.1083-.3054,0-.5545-.0651-.7475-.1953-.1929-.1314-.3113-.3178-.3551-.5593l.5132-.0781c.0319.1338.0976.235.197.3036.0995.0675.2291.1012.3889.1012.174,0,.3131-.0361.4173-.1083.1041-.0734.1562-.1627.1562-.2681c0-.0852-.032-.1568-.0959-.2148-.0627-.058-.1592-.1018-.2894-.1314l-.4616-.1012c-.2545-.058-.4428-.1504-.5647-.277-.1207-.1267-.1811-.2871-.1811-.4812c0-.161.045-.3018.135-.4226.0899-.1207.2142-.2148.3728-.2823.1586-.0687.3403-.103.5451-.103.2948,0,.5268.0639.6961.1918.1692.1266.2811.2965.3355.5096Zm1.8124,2.1164c-.2687,0-.5001-.0574-.6942-.1722-.1929-.116-.3421-.2788-.4474-.4883-.1042-.2107-.1563-.4575-.1563-.7404c0-.2793.0521-.5255.1563-.7386.1053-.2131.2521-.3794.4403-.499.1894-.1195.4107-.1793.6641-.1793.1538,0,.303.0255.4474.0764s.274.1308.3889.2397c.1148.1089.2053.2503.2716.4243.0663.1728.0994.383.0994.6304v.1882h-2.1679v-.3978h1.6477c0-.1396-.0284-.2633-.0852-.3711-.0568-.1089-.1367-.1947-.2397-.2574-.1018-.0628-.2214-.0941-.3587-.0941-.1491,0-.2793.0367-.3906.1101-.1101.0722-.1953.1669-.2557.2841-.0592.116-.0888.242-.0888.3782v.3107c0,.1823.032.3373.0959.4652.0651.1278.1557.2255.2717.2929.116.0663.2515.0995.4066.0995.1006,0,.1923-.0142.2752-.0426.0828-.0296.1545-.0734.2148-.1314.0604-.058.1066-.1296.1385-.2149l.5025.0906c-.0402.1479-.1124.2776-.2166.3888-.103.1101-.2326.1959-.3889.2575-.155.0604-.332.0905-.5309.0905Zm3.0323-2.7823v.4262h-1.4897v-.4262h1.4897Zm-1.0902-.6534h.5309v2.5799c0,.103.0154.1805.0461.2326.0308.0509.0705.0858.119.1048.0497.0177.1036.0266.1616.0266.0426,0,.0799-.0029.1118-.0089.032-.0059.0569-.0106.0746-.0142l.0959.4386c-.0308.0118-.0746.0237-.1314.0355-.0568.013-.1278.0201-.2131.0213-.1396.0024-.2699-.0225-.3906-.0746-.1207-.052-.2184-.1325-.293-.2414-.0745-.1089-.1118-.2457-.1118-.4102v-2.69Zm3.4051,2.2497v-1.5963h.5326v2.7273h-.522v-.4723h-.0284c-.0627.1456-.1633.2669-.3018.364-.1373.0959-.3084.1438-.5132.1438-.1752,0-.3302-.0385-.4652-.1154-.1337-.0781-.2391-.1935-.316-.3462-.0758-.1527-.1137-.3415-.1137-.5664v-1.7348h.5309v1.6708c0,.1859.0515.3338.1545.4439s.2368.1652.4013.1652c.0994,0,.1983-.0249.2965-.0746.0994-.0497.1817-.1249.2468-.2255.0663-.1006.0989-.2285.0977-.3835Zm1.246,2.1537v-3.75h.5184v.4421h.0444c.0308-.0568.0752-.1225.1332-.197s.1385-.1397.2415-.1954c.103-.0568.2391-.0852.4084-.0852.2201,0,.4166.0557.5894.1669.1729.1113.3084.2717.4066.4812.0995.2095.1492.4616.1492.7564s-.0491.5475-.1474.7582c-.0982.2095-.2332.3711-.4048.4847-.1716.1124-.3675.1687-.5877.1687-.1657,0-.3013-.0279-.4066-.0835-.1042-.0556-.1859-.1207-.2451-.1953-.0591-.0746-.1047-.1409-.1367-.1989h-.0319v1.4471h-.5309Zm.5202-2.3863c0,.1917.0278.3598.0835.5042.0556.1444.1361.2575.2414.3392.1054.0805.2344.1207.3871.1207.1586,0,.2912-.042.3977-.1261.1066-.0852.1871-.2006.2415-.3462.0557-.1456.0835-.3095.0835-.4918c0-.18-.0272-.3415-.0817-.4848-.0533-.1432-.1338-.2562-.2415-.3391-.1065-.0829-.2397-.1243-.3995-.1243-.1539,0-.2841.0397-.3906.119-.1054.0793-.1853.19-.2397.332s-.0817.3078-.0817.4972Z" fill="#94a3b8"/><path d="M100,19h-30" fill="none" stroke="#334155" stroke-width="2" stroke-opacity="0.2" stroke-linecap="round"/><path d="M100,77h-31" fill="none" stroke="#334155" stroke-width="2" stroke-opacity="0.2" stroke-linecap="round"/><path d="M195,20c0,2.7614-2.239,5-5,5s-5-2.2386-5-5s2.239-5,5-5s5,2.2386,5,5Z" fill="#0f172a"/><path d="M195,20c0,2.7614-2.239,5-5,5s-5-2.2386-5-5s2.239-5,5-5s5,2.2386,5,5Zm-5.578,2.6475l3.709-3.7097c.126-.126.126-.3302,0-.4562l-.456-.4562c-.126-.126-.33-.126-.456,0l-3.025,3.0254-1.413-1.4125c-.126-.126-.33-.126-.456,0l-.456.4562c-.126.1259-.126.3302,0,.4562l2.096,2.0967c.126.126.331.126.457.0001Z" fill="#3b82f6"/><path d="M315.167,77c0,2.3012-1.866,4.1667-4.167,4.1667s-4.167-1.8655-4.167-4.1667s1.866-4.1667,4.167-4.1667s4.167,1.8655,4.167,4.1667Z" fill="#0f172a"/><path d="M311,81.1667c-2.301,0-4.167-1.8655-4.167-4.1667s1.866-4.1667,4.167-4.1667s4.167,1.8655,4.167,4.1667-1.866,4.1667-4.167,4.1667Zm-.417-2.9167v.8333h.834v-.8333h-.834Zm.834-.6854c.335-.1009.622-.3188.81-.6139.187-.2951.263-.6478.212-.9938-.05-.3461-.223-.6626-.487-.8917-.265-.2292-.602-.3558-.952-.3569-.337,0-.664.1168-.925.3304-.26.2137-.439.5111-.505.8417l.817.1638c.023-.1161.079-.2232.161-.3089.081-.0856.186-.1463.301-.175.114-.0287.235-.0242.347.013.113.0372.212.1055.287.1971s.123.2025.137.32c.015.1174-.004.2366-.055.3436s-.131.1974-.231.2607-.216.097-.334.097c-.111,0-.216.0439-.295.122-.078.0781-.122.1841-.122.2946v.625h.834v-.2687Z" fill="#ef4444"/><path d="M102.677,4v-2.90909h.439v2.53125h1.318v.37784h-1.757Zm2.859.0483c-.139,0-.264-.02557-.375-.07671-.112-.05208-.201-.12737-.266-.22585-.064-.09849-.097-.21922-.097-.36222c0-.1231.024-.22443.071-.30397.048-.07955.112-.14252.192-.18893.081-.0464.171-.08143.27-.10511.1-.02367.201-.04167.304-.05398.131-.01515.237-.02746.318-.03693.082-.01041.141-.02699.178-.04971s.055-.05966.055-.1108v-.00994c0-.12406-.035-.22017-.105-.28835-.069-.06819-.172-.10228-.31-.10228-.143,0-.255.03173-.338.09517-.081.0625-.137.13211-.169.20881l-.399-.09091c.048-.13257.117-.23958.208-.32102.091-.08239.197-.14205.316-.17898.12-.03788.245-.05682.377-.05682.087,0,.179.01042.277.03125.098.01989.19.05682.275.1108.087.05398.157.13115.212.23153.055.09943.082.2287.082.38779v1.44886h-.414v-.2983h-.017c-.028.05493-.069.10891-.124.16194s-.125.09706-.212.1321c-.086.03504-.189.05256-.309.05256Zm.092-.34091c.117,0,.218-.0232.301-.06961.084-.0464.148-.107.192-.18181.044-.07576.067-.15673.067-.2429v-.28125c-.015.01515-.045.02935-.088.04261-.043.01231-.092.0232-.147.03267-.055.00852-.108.01657-.16.02415-.052.00663-.096.01231-.131.01705-.082.01041-.158.02793-.226.05255-.067.02462-.121.06013-.162.10654-.039.04545-.059.10606-.059.18181c0,.10512.038.18466.116.23864.078.05303.177.07955.297.07955Zm1.975-1.00284v1.29545h-.425v-2.18182h.408v.35512h.027c.05-.11553.129-.20834.236-.27841s.243-.10512.407-.10512c.149,0,.279.03125.391.09375.112.06156.198.15341.26.27557.061.12216.092.2732.092.45313v1.38778h-.425v-1.33665c0-.15814-.041-.28172-.123-.37074-.083-.08996-.196-.13494-.34-.13494-.098,0-.186.02131-.262.06392s-.136.10511-.181.1875c-.043.08144-.065.17993-.065.29546Zm2.782,1.33806c-.176,0-.333-.04498-.471-.13494-.137-.09091-.245-.22017-.324-.38778-.078-.16856-.116-.37074-.116-.60654s.039-.4375.117-.60511c.08-.16762.189-.29593.327-.38494s.295-.13353.47-.13353c.136,0,.245.02273.327.06818.083.04451.148.0966.193.15625.047.05966.083.11222.108.15768h.026v-1.08097h.424v2.90909h-.414v-.33949h-.036c-.025.0464-.062.09943-.111.15909-.047.05966-.112.11174-.196.15625-.083.04451-.191.06676-.324.06676Zm.094-.36221c.122,0,.226-.0322.31-.09659.085-.06534.15-.15578.193-.27131.045-.11553.067-.25.067-.40341c0-.15151-.022-.28409-.066-.39773-.043-.11363-.107-.20217-.191-.26562-.085-.06345-.189-.09517-.313-.09517-.128,0-.234.03314-.319.09943-.086.06629-.15.15672-.194.27131-.042.11458-.063.24384-.063.38778c0,.14583.021.27699.065.39347.043.11647.108.2088.193.27699.086.06723.192.10085.318.10085ZM112.073,4v-2.18182h.424v2.18182h-.424Zm.214-2.51847c-.074,0-.137-.02462-.19-.07386-.052-.05019-.078-.10985-.078-.17898c0-.07007.026-.12973.078-.17897.053-.050194.116-.075288.19-.075288s.137.025094.189.075288c.053.04924.08.1089.08.17897c0,.06913-.027.12879-.08.17898-.052.04924-.115.07386-.189.07386Zm1.206,1.22302v1.29545h-.424v-2.18182h.407v.35512h.027c.051-.11553.129-.20834.236-.27841.108-.07008.244-.10512.408-.10512.149,0,.279.03125.39.09375.112.06156.199.15341.26.27557.062.12216.093.2732.093.45313v1.38778h-.425v-1.33665c0-.15814-.041-.28172-.124-.37074-.082-.08996-.195-.13494-.339-.13494-.099,0-.186.02131-.263.06392-.076.04261-.136.10511-.18.1875-.044.08144-.066.17993-.066.29546Zm2.881,2.15909c-.173,0-.322-.02273-.447-.06819-.124-.04545-.226-.10558-.304-.18039-.079-.07481-.138-.15673-.176-.24574l.365-.15057c.025.04167.059.0857.102.1321.043.04735.102.0876.176.12074.075.03314.171.04972.288.04972.161,0,.294-.0393.4-.1179.105-.07765.157-.20171.157-.37216v-.42898h-.027c-.025.0464-.062.09801-.111.15483-.047.05682-.112.10606-.196.14773-.083.04167-.191.0625-.325.0625-.172,0-.328-.04025-.466-.12074-.137-.08144-.246-.20123-.327-.35937-.079-.1591-.119-.35464-.119-.58665s.039-.43087.118-.59659c.08-.16572.189-.29262.327-.38068.138-.08902.295-.13353.47-.13353.135,0,.245.02273.328.06818.083.04451.148.0966.195.15625s.083.11222.109.15768h.031v-.3537h.416v2.23012c0,.1875-.043.34138-.13.46164s-.205.20928-.354.26705c-.148.05776-.314.08665-.5.08665Zm-.004-1.24858c.122,0,.225-.02841.31-.08523.085-.05777.149-.14015.193-.24716.044-.10795.066-.23722.066-.38778c0-.14678-.021-.27605-.065-.38779-.043-.11174-.107-.19886-.192-.26136-.084-.06345-.188-.09517-.312-.09517-.128,0-.235.03314-.32.09943-.085.06534-.149.15436-.193.26705-.043.11268-.064.23863-.064.37784c0,.14299.022.26846.065.37642.044.10795.108.19223.194.25284s.192.09091.318.09091ZM105.503,9v-2.90909h1.037c.226,0,.414.04119.563.12358.148.08238.26.19507.333.33807.074.14204.111.30208.111.48011c0,.17898-.037.33996-.112.48295-.074.14205-.186.25474-.335.33807-.149.08239-.336.12358-.561.12358h-.713v-.37216h.673c.143,0,.259-.02462.348-.07386.089-.05019.154-.11837.196-.20455s.062-.18418.062-.29403-.02-.20739-.062-.29261-.108-.15199-.197-.20029-.207-.07244-.353-.07244h-.551v2.53267h-.439Zm3.14.0483c-.138,0-.263-.02557-.375-.07671-.112-.05208-.2-.12737-.266-.22585-.064-.09849-.096-.21922-.096-.36222c0-.1231.024-.22443.071-.30397s.111-.14252.192-.18893c.08-.0464.17-.08143.27-.10511.099-.02367.2-.04167.304-.05398.13-.01515.236-.02746.318-.03693.081-.01041.14-.02699.177-.04971s.056-.05966.056-.1108v-.00994c0-.12406-.035-.22017-.105-.28835s-.173-.10228-.31-.10228c-.143,0-.256.03173-.338.09517-.082.0625-.138.13211-.169.20881l-.399-.09091c.047-.13257.116-.23958.207-.32102.092-.08239.197-.14205.317-.17898.119-.03788.245-.05682.376-.05682.087,0,.18.01042.277.03125.099.01989.191.05682.276.1108.086.05398.157.13115.211.23153.055.09943.083.2287.083.38779v1.44886h-.415v-.2983h-.017c-.027.05493-.069.10891-.124.16194s-.125.09706-.211.1321-.19.05256-.31.05256Zm.092-.34091c.118,0,.218-.0232.302-.06961s.148-.107.191-.18181c.045-.07576.067-.15673.067-.2429v-.28125c-.015.01515-.044.02935-.088.04261-.043.01231-.091.0232-.146.03267-.055.00852-.109.01657-.161.02415-.052.00663-.095.01231-.13.01705-.083.01041-.158.02793-.226.05255s-.122.06013-.162.10654c-.04.04545-.06.10606-.06.18181c0,.10512.039.18466.117.23864.077.05303.176.07955.296.07955ZM111.2,9.86364c-.173,0-.322-.02273-.447-.06819-.124-.04545-.226-.10558-.304-.18039-.079-.07481-.137-.15673-.176-.24574l.365-.15057c.025.04167.059.0857.102.1321.044.04735.102.0876.176.12074.075.03314.171.04972.289.04972.161,0,.294-.0393.399-.1179.105-.07765.157-.20171.157-.37216v-.42898h-.027c-.025.0464-.062.09801-.11.15483s-.113.10606-.196.14773c-.084.04167-.192.0625-.326.0625-.172,0-.327-.04025-.466-.12074-.137-.08144-.246-.20123-.326-.35937-.08-.1591-.12-.35464-.12-.58665s.04-.43087.118-.59659c.08-.16572.189-.29262.327-.38068.138-.08902.295-.13353.47-.13353.136,0,.245.02273.328.06818.084.04451.148.0966.195.15625s.084.11222.109.15768h.031v-.3537h.417v2.23012c0,.1875-.044.34138-.131.46164s-.205.20928-.354.26705c-.147.05776-.314.08665-.5.08665Zm-.004-1.24858c.122,0,.225-.02841.31-.08523.085-.05777.149-.14015.193-.24716.044-.10795.067-.23722.067-.38778c0-.14678-.022-.27605-.066-.38779-.043-.11174-.107-.19886-.191-.26136-.085-.06345-.189-.09517-.313-.09517-.128,0-.234.03314-.32.09943-.085.06534-.149.15436-.193.26705-.042.11268-.064.23863-.064.37784c0,.14299.022.26846.066.37642.043.10795.108.19223.193.25284.086.0606.192.09091.318.09091Zm2.499.42897c-.215,0-.4-.04592-.556-.13778-.154-.0928-.273-.22301-.358-.39063-.083-.16856-.125-.366-.125-.59232c0-.22349.042-.42046.125-.59091.085-.17046.202-.30351.353-.39915s.328-.14347.531-.14347c.123,0,.242.02036.358.06108.115.04072.219.10464.311.19176s.164.20029.217.33949c.053.13826.08.30635.08.50426v.15057h-1.735v-.31818h1.318c0-.11174-.022-.2107-.068-.29687-.045-.08713-.109-.15578-.191-.20597s-.178-.07529-.287-.07529c-.12,0-.224.02936-.313.08807-.088.05777-.156.13353-.204.22728-.048.0928-.071.19365-.071.30255v.24858c0,.14584.025.26989.076.37216.052.10227.125.1804.218.23438.092.05303.201.07954.325.07954.08,0,.154-.01136.22-.03409.066-.02367.124-.05871.172-.10511s.085-.1037.111-.17188l.402.07245c-.033.11837-.09.22206-.174.31107-.082.08807-.186.15673-.311.20597-.124.0483-.265.07244-.424.07244Z" fill="#fff"/><path d="M100.407,89v-2.9091h.439v1.2642h1.451v-1.2642h.44v2.9091h-.44v-1.2685h-1.451v1.2685h-.439Zm3.854.044c-.204,0-.383-.0468-.535-.1406-.153-.0937-.271-.2249-.355-.3935-.085-.1685-.127-.3655-.127-.5909c0-.2263.042-.4242.127-.5937.084-.1695.202-.3012.355-.3949.152-.0938.331-.1406.535-.1406.205,0,.383.0468.536.1406.152.0937.271.2254.355.3949s.126.3674.126.5937c0,.2254-.042.4224-.126.5909s-.203.2998-.355.3935c-.153.0938-.331.1406-.536.1406Zm.002-.3565c.132,0,.242-.035.329-.1051s.152-.1634.193-.2798c.043-.1165.064-.2448.064-.385c0-.1392-.021-.267-.064-.3835-.041-.1174-.106-.2117-.193-.2827s-.197-.1065-.329-.1065c-.134,0-.245.0355-.333.1065-.087.071-.152.1653-.194.2827-.042.1165-.063.2443-.063.3835c0,.1402.021.2685.063.385.042.1164.107.2097.194.2798.088.0701.199.1051.333.1051ZM105.752,89v-2.1818h.408v.3551h.027c.045-.1203.12-.214.223-.2813.103-.0681.227-.1022.371-.1022.146,0,.268.0341.366.1022.1.0682.173.162.22.2813h.023c.052-.1165.135-.2093.249-.2784.113-.0701.249-.1051.406-.1051.198,0,.359.062.484.1861.126.124.189.311.189.561v1.4631h-.424v-1.4233c0-.1477-.041-.2547-.121-.321-.081-.0663-.177-.0995-.289-.0995-.138,0-.245.0427-.322.1279-.077.0843-.115.1927-.115.3253v1.3906h-.423v-1.4503c0-.1184-.037-.2135-.111-.2855s-.17-.108-.289-.108c-.08,0-.154.0214-.223.064-.067.0416-.121.0999-.163.1747-.041.0748-.061.1614-.061.2599v1.3452h-.425Zm4.476.044c-.215,0-.4-.0459-.556-.1378-.154-.0928-.273-.223-.358-.3906-.083-.1685-.125-.366-.125-.5923c0-.2235.042-.4205.125-.5909.085-.1705.202-.3035.353-.3992s.328-.1434.531-.1434c.123,0,.242.0203.358.0611.115.0407.219.1046.311.1917s.164.2003.217.3395c.053.1383.08.3063.08.5043v.1505h-1.734v-.3181h1.318c0-.1118-.023-.2108-.068-.2969-.046-.0871-.11-.1558-.192-.206s-.177-.0753-.287-.0753c-.12,0-.224.0294-.313.0881-.088.0578-.156.1335-.204.2273-.048.0928-.071.1936-.071.3025v.2486c0,.1458.025.2699.076.3722.053.1022.125.1804.218.2343.093.0531.201.0796.325.0796.081,0,.154-.0114.22-.0341.067-.0237.124-.0587.172-.1051s.085-.1037.111-.1719l.402.0724c-.032.1184-.09.2221-.173.3111-.083.0881-.186.1567-.311.206-.125.0483-.266.0724-.425.0724Zm1.407.7742v-3h.415v.3537h.035c.025-.0455.061-.098.107-.1577s.111-.1117.193-.1562c.083-.0455.191-.0682.327-.0682.176,0,.333.0445.471.1335.139.089.247.2173.326.3849.079.1677.119.3694.119.6052s-.039.4379-.118.6065c-.078.1676-.186.2969-.324.3878-.137.0899-.294.1349-.47.1349-.132,0-.241-.0222-.325-.0667-.084-.0446-.149-.0966-.196-.1563-.048-.0597-.084-.1127-.11-.1591h-.025v1.1577h-.425Zm.416-1.9091c0,.1534.023.2879.067.4034.045.1155.109.206.193.2713.085.0644.188.0966.31.0966.127,0,.233-.0336.318-.1009.085-.0681.15-.1605.193-.2769.045-.1165.067-.2477.067-.3935c0-.1439-.022-.2732-.065-.3878s-.107-.205-.193-.2713-.192-.0994-.32-.0994c-.123,0-.227.0317-.313.0951-.084.0635-.148.152-.191.2657-.044.1136-.066.2462-.066.3977Zm2.688,1.1392c-.138,0-.263-.0256-.375-.0767-.112-.0521-.2-.1274-.266-.2259-.064-.0984-.096-.2192-.096-.3622c0-.1231.023-.2244.071-.304.047-.0795.111-.1425.191-.1889.081-.0464.171-.0814.27-.1051.1-.0237.201-.0417.304-.054.131-.0151.237-.0274.318-.0369.082-.0104.141-.027.178-.0497s.055-.0597.055-.1108v-.01c0-.124-.035-.2201-.105-.2883-.069-.0682-.172-.1023-.309-.1023-.143,0-.256.0317-.338.0952-.082.0625-.138.1321-.169.2088l-.4-.0909c.048-.1326.117-.2396.208-.321.092-.0824.197-.1421.317-.179.119-.0379.244-.0568.376-.0568.087,0,.179.0104.277.0312.098.0199.19.0568.275.1108.087.054.157.1312.212.2316.055.0994.083.2286.083.3877v1.4489h-.415v-.2983h-.017c-.028.0549-.069.1089-.124.1619s-.125.0971-.212.1321c-.086.0351-.189.0526-.309.0526Zm.092-.3409c.118,0,.218-.0232.301-.0696.085-.0464.148-.107.192-.1818.045-.0758.067-.1568.067-.2429v-.2813c-.015.0152-.045.0294-.088.0426-.043.0123-.092.0232-.147.0327-.054.0085-.108.0166-.16.0241-.052.0067-.096.0124-.131.0171-.082.0104-.157.0279-.226.0526-.067.0246-.121.0601-.162.1065-.039.0454-.059.106-.059.1818c0,.1051.039.1847.116.2386.078.0531.177.0796.297.0796Zm2.465,1.1562c-.173,0-.322-.0227-.447-.0681-.125-.0455-.226-.1056-.304-.1804-.079-.0749-.138-.1568-.177-.2458l.365-.1505c.026.0416.06.0857.103.1321.043.0473.102.0875.176.1207.075.0331.171.0497.288.0497.161,0,.294-.0393.399-.1179.106-.0776.158-.2017.158-.3722v-.4289h-.027c-.025.0464-.062.098-.111.1548-.047.0568-.112.1061-.196.1477-.083.0417-.192.0625-.325.0625-.172,0-.328-.0402-.466-.1207-.137-.0814-.246-.2012-.327-.3594-.079-.1591-.119-.3546-.119-.5866s.039-.4309.118-.5966.188-.2926.327-.3807c.138-.089.295-.1335.47-.1335.135,0,.245.0227.328.0682.083.0445.148.0965.195.1562s.083.1122.109.1577h.031v-.3537h.416v2.2301c0,.1875-.043.3414-.13.4616-.087.1203-.205.2093-.354.2671-.148.0578-.314.0866-.5.0866Zm-.004-1.2485c.122,0,.225-.0285.309-.0853.086-.0577.15-.1401.194-.2471.044-.108.066-.2372.066-.3878c0-.1468-.021-.2761-.065-.3878s-.107-.1989-.192-.2614c-.084-.0634-.188-.0951-.312-.0951-.128,0-.235.0331-.32.0994-.085.0653-.149.1544-.193.267-.043.1127-.064.2387-.064.3779c0,.143.022.2685.065.3764.044.108.108.1922.194.2528s.192.091.318.091Zm2.498.4289c-.215,0-.4-.0459-.555-.1378-.154-.0928-.274-.223-.358-.3906-.083-.1685-.125-.366-.125-.5923c0-.2235.042-.4205.125-.5909.084-.1705.202-.3035.352-.3992.152-.0956.329-.1434.531-.1434.124,0,.243.0203.358.0611.116.0407.22.1046.312.1917.091.0871.164.2003.217.3395.053.1383.079.3063.079.5043v.1505h-1.734v-.3181h1.318c0-.1118-.023-.2108-.068-.2969-.045-.0871-.109-.1558-.192-.206-.081-.0502-.177-.0753-.287-.0753-.119,0-.223.0294-.312.0881-.088.0578-.156.1335-.205.2273-.047.0928-.071.1936-.071.3025v.2486c0,.1458.026.2699.077.3722.052.1022.124.1804.217.2343.093.0531.202.0796.326.0796.08,0,.153-.0114.22-.0341.066-.0237.123-.0587.172-.1051.048-.0464.085-.1037.11-.1719l.402.0724c-.032.1184-.09.2221-.173.3111-.082.0881-.186.1567-.311.206-.124.0483-.266.0724-.425.0724Z" fill="#fff"/><path d="M229.05,87.0369h-.443c-.017-.0947-.049-.178-.095-.25-.047-.0719-.103-.133-.171-.1832-.067-.0502-.142-.0881-.225-.1136s-.17-.0384-.263-.0384c-.168,0-.318.0421-.45.1264s-.236.2079-.313.3708c-.076.1628-.114.3617-.114.5966c0,.2367.038.4365.114.5994.077.1629.181.286.314.3693s.282.125.447.125c.092,0,.179-.0123.262-.0369.083-.0256.158-.063.226-.1122.067-.0493.124-.1094.17-.1804.047-.072.08-.1544.098-.2472l.443.0014c-.023.143-.069.2746-.138.3949-.067.1193-.153.2225-.259.3097-.106.0861-.226.1529-.361.2003-.136.0473-.283.071-.443.071-.252,0-.477-.0597-.674-.179-.197-.1203-.352-.2921-.466-.5156-.112-.2235-.169-.4901-.169-.7997c0-.3107.057-.5772.171-.7998.113-.2234.269-.3948.466-.5142.197-.1202.421-.1804.672-.1804.154,0,.298.0223.431.0668.135.0436.256.108.363.1932.107.0843.195.1875.265.3096.07.1213.118.26.142.4162Zm1.126,2.0114c-.138,0-.263-.0256-.375-.0767-.111-.0521-.2-.1274-.265-.2259-.065-.0984-.097-.2192-.097-.3622c0-.1231.024-.2244.071-.304.047-.0795.111-.1425.192-.1889.08-.0464.17-.0814.27-.1051.099-.0237.201-.0417.304-.054.13-.0151.236-.0274.318-.0369.081-.0104.141-.027.177-.0497.037-.0227.056-.0597.056-.1108v-.01c0-.124-.035-.2201-.105-.2883-.069-.0682-.173-.1023-.31-.1023-.143,0-.256.0317-.338.0952-.081.0625-.138.1321-.169.2088l-.399-.0909c.047-.1326.116-.2396.207-.321.092-.0824.198-.1421.317-.179.119-.0379.245-.0568.376-.0568.088,0,.18.0104.277.0312.099.0199.191.0568.276.1108.086.054.157.1312.212.2316.055.0994.082.2286.082.3877v1.4489h-.415v-.2983h-.017c-.027.0549-.068.1089-.123.1619s-.126.0971-.212.1321c-.086.0351-.189.0526-.31.0526Zm.093-.3409c.117,0,.217-.0232.301-.0696s.148-.107.192-.1818c.044-.0758.066-.1568.066-.2429v-.2813c-.015.0152-.044.0294-.088.0426-.042.0123-.091.0232-.146.0327-.055.0085-.109.0166-.161.0241-.052.0067-.095.0124-.13.0171-.083.0104-.158.0279-.226.0526-.067.0246-.121.0601-.162.1065-.04.0454-.06.106-.06.1818c0,.1051.039.1847.117.2386.077.0531.176.0796.297.0796Zm1.55.2926v-2.1818h.41v.3466h.023c.04-.1175.11-.2098.21-.277.102-.0682.216-.1023.344-.1023.026,0,.058.001.094.0029.037.0018.065.0042.086.0071v.4062c-.017-.0047-.047-.0099-.091-.0156-.043-.0066-.087-.01-.13-.01-.101,0-.19.0213-.269.064-.077.0416-.139.0999-.184.1747-.046.0738-.069.1581-.069.2528v1.3324h-.424Zm2.682-2.1818v.3409h-1.192v-.3409h1.192Zm-.872-.5227h.425v2.0639c0,.0824.012.1444.037.1861.024.0407.056.0686.095.0838.04.0142.083.0213.129.0213.034,0,.064-.0024.09-.0071.025-.0048.045-.0086.059-.0114l.077.3509c-.025.0094-.06.0189-.105.0284-.046.0104-.102.0161-.171.017-.111.0019-.215-.018-.312-.0596-.097-.0417-.175-.1061-.234-.1932-.06-.0872-.09-.1965-.09-.3282v-2.1519Z" fill="#fff"/><path d="M140.04,87.0369h-.443c-.017-.0947-.048-.178-.095-.25-.046-.0719-.103-.133-.17-.1832-.068-.0502-.143-.0881-.226-.1136s-.17-.0384-.263-.0384c-.168,0-.318.0421-.45.1264s-.236.2079-.313.3708c-.076.1628-.113.3617-.113.5966c0,.2367.037.4365.113.5994.077.1629.182.286.314.3693.133.0833.282.125.448.125.091,0,.179-.0123.261-.0369.083-.0256.159-.063.226-.1122.067-.0493.124-.1094.17-.1804.048-.072.08-.1544.098-.2472l.443.0014c-.023.143-.069.2746-.137.3949-.068.1193-.154.2225-.26.3097-.105.0861-.226.1529-.361.2003-.135.0473-.283.071-.443.071-.252,0-.477-.0597-.674-.179-.196-.1203-.352-.2921-.465-.5156s-.169-.4901-.169-.7997c0-.3107.056-.5772.17-.7998.114-.2234.269-.3948.466-.5142.197-.1202.421-.1804.672-.1804.154,0,.298.0223.432.0668.134.0436.255.108.362.1932.107.0843.195.1875.265.3096.071.1213.118.26.142.4162Zm1.411,2.0071c-.205,0-.383-.0468-.536-.1406-.152-.0937-.271-.2249-.355-.3935s-.126-.3655-.126-.5909c0-.2263.042-.4242.126-.5937s.203-.3012.355-.3949c.153-.0938.331-.1406.536-.1406.204,0,.383.0468.535.1406.153.0937.271.2254.355.3949.085.1695.127.3674.127.5937c0,.2254-.042.4224-.127.5909-.084.1686-.202.2998-.355.3935-.152.0938-.331.1406-.535.1406Zm.001-.3565c.133,0,.242-.035.33-.1051.087-.0701.151-.1634.193-.2798.042-.1165.064-.2448.064-.385c0-.1392-.022-.267-.064-.3835-.042-.1174-.106-.2117-.193-.2827-.088-.071-.197-.1065-.33-.1065s-.244.0355-.332.1065c-.087.071-.152.1653-.195.2827-.042.1165-.062.2443-.062.3835c0,.1402.02.2685.062.385.043.1164.108.2097.195.2798.088.0701.199.1051.332.1051Zm1.914-2.5966v2.9091h-.424v-2.9091h.424Zm.997,0v2.9091h-.425v-2.9091h.425Zm1.511,2.9531c-.215,0-.4-.0459-.555-.1378-.154-.0928-.274-.223-.358-.3906-.083-.1685-.125-.366-.125-.5923c0-.2235.042-.4205.125-.5909.084-.1705.202-.3035.352-.3992.152-.0956.329-.1434.531-.1434.124,0,.243.0203.358.0611.116.0407.22.1046.311.1917.092.0871.165.2003.218.3395.053.1383.079.3063.079.5043v.1505h-1.734v-.3181h1.318c0-.1118-.023-.2108-.068-.2969-.045-.0871-.109-.1558-.192-.206-.081-.0502-.177-.0753-.287-.0753-.119,0-.223.0294-.312.0881-.088.0578-.156.1335-.205.2273-.047.0928-.071.1936-.071.3025v.2486c0,.1458.026.2699.077.3722.052.1022.124.1804.217.2343.093.0531.201.0796.326.0796.08,0,.153-.0114.22-.0341.066-.0237.123-.0587.172-.1051.048-.0464.085-.1037.11-.1719l.402.0724c-.032.1184-.09.2221-.173.3111-.082.0881-.186.1567-.311.206-.124.0483-.266.0724-.425.0724Zm2.327,0c-.212,0-.393-.0478-.546-.1434-.151-.0966-.268-.2297-.349-.3992-.082-.1695-.122-.3636-.122-.5824c0-.2216.041-.4171.125-.5866.083-.1705.2-.3035.352-.3992.151-.0956.33-.1434.535-.1434.166,0,.314.0307.444.0923.129.0606.234.1458.313.2557.081.1098.129.2381.144.3849h-.413c-.023-.1022-.075-.1903-.157-.2642-.08-.0738-.188-.1108-.324-.1108-.118,0-.222.0313-.311.0938-.088.0615-.156.1496-.206.2642-.049.1136-.073.2481-.073.4034c0,.1591.024.2964.072.4119.048.1156.116.205.205.2685.089.0634.193.0952.313.0952.081,0,.154-.0147.219-.0441.067-.0303.122-.0734.166-.1292.046-.0559.078-.1231.096-.2017h.413c-.015.1411-.061.267-.138.3778s-.179.1979-.308.2614c-.128.0634-.278.0951-.45.0951Zm2.369-2.2258v.3409h-1.192v-.3409h1.192Zm-.873-.5227h.425v2.0639c0,.0824.012.1444.037.1861.025.0407.056.0686.095.0838.04.0142.083.0213.13.0213.034,0,.063-.0024.089-.0071.026-.0048.045-.0086.06-.0114l.076.3509c-.024.0094-.059.0189-.105.0284-.045.0104-.102.0161-.17.017-.112.0019-.216-.018-.313-.0596-.096-.0417-.174-.1061-.234-.1932s-.09-.1965-.09-.3282v-2.1519ZM151.039,89v-2.1818h.425v2.1818h-.425Zm.215-2.5185c-.074,0-.137-.0246-.19-.0738-.053-.0502-.079-.1099-.079-.179c0-.0701.026-.1297.079-.179.053-.0502.116-.0753.19-.0753s.137.0251.189.0753c.053.0493.079.1089.079.179c0,.0691-.026.1288-.079.179-.052.0492-.115.0738-.189.0738Zm1.701,2.5625c-.205,0-.384-.0468-.536-.1406-.152-.0937-.271-.2249-.355-.3935s-.126-.3655-.126-.5909c0-.2263.042-.4242.126-.5937s.203-.3012.355-.3949c.152-.0938.331-.1406.536-.1406.204,0,.383.0468.535.1406.153.0937.271.2254.355.3949s.127.3674.127.5937c0,.2254-.043.4224-.127.5909s-.202.2998-.355.3935c-.152.0938-.331.1406-.535.1406Zm.001-.3565c.133,0,.242-.035.33-.1051.087-.0701.151-.1634.193-.2798.042-.1165.064-.2448.064-.385c0-.1392-.022-.267-.064-.3835-.042-.1174-.106-.2117-.193-.2827-.088-.071-.197-.1065-.33-.1065-.134,0-.244.0355-.332.1065s-.152.1653-.195.2827c-.042.1165-.063.2443-.063.3835c0,.1402.021.2685.063.385.043.1164.107.2097.195.2798s.198.1051.332.1051Zm1.914-.983v1.2955h-.424v-2.1818h.407v.3551h.027c.051-.1155.129-.2083.236-.2784.108-.0701.244-.1051.408-.1051.148,0,.279.0312.39.0937.112.0616.199.1534.26.2756.062.1221.093.2732.093.4531v1.3878h-.425v-1.3366c0-.1582-.041-.2818-.124-.3708-.082-.0899-.195-.1349-.339-.1349-.099,0-.186.0213-.263.0639-.076.0426-.136.1051-.18.1875-.044.0814-.066.1799-.066.2954Zm3.601-.3536l-.385.0681c-.016-.0492-.041-.0961-.076-.1406s-.081-.081-.14-.1094c-.058-.0284-.132-.0426-.22-.0426-.12,0-.22.027-.301.081-.08.053-.121.1217-.121.206c0,.0729.027.1316.081.1761s.141.081.262.1094l.346.0795c.201.0464.351.1179.449.2145.099.0966.148.2221.148.3764c0,.1307-.038.2472-.114.3495-.075.1013-.179.1808-.314.2386-.133.0578-.288.0866-.464.0866-.245,0-.444-.052-.598-.1562-.155-.1051-.249-.2543-.284-.4475l.41-.0625c.026.107.078.188.158.2429.079.054.183.081.311.081.139,0,.25-.0289.334-.0866.083-.0588.125-.1303.125-.2145c0-.0682-.026-.1255-.077-.1719-.05-.0464-.127-.0814-.231-.1051l-.37-.081c-.203-.0464-.354-.1203-.451-.2216s-.145-.2296-.145-.3849c0-.1288.036-.2415.108-.3381s.171-.1719.298-.2258c.127-.055.272-.0824.436-.0824.236,0,.421.0511.557.1534.135.1013.225.2372.268.4077ZM143.503,94v-2.9091h1.037c.226,0,.414.0412.563.1236.148.0824.26.1951.333.3381.074.142.111.302.111.4801c0,.1789-.037.3399-.112.4829-.074.1421-.186.2548-.335.3381-.149.0824-.336.1236-.561.1236h-.713v-.3722h.673c.143,0,.259-.0246.348-.0739.089-.0501.154-.1183.196-.2045s.062-.1842.062-.294c0-.1099-.02-.2074-.062-.2926-.042-.0853-.108-.152-.197-.2003s-.207-.0725-.353-.0725h-.551v2.5327h-.439Zm3.14.0483c-.138,0-.263-.0256-.375-.0767-.112-.0521-.2-.1274-.266-.2259-.064-.0984-.096-.2192-.096-.3622c0-.1231.024-.2244.071-.304.047-.0795.111-.1425.192-.1889.08-.0464.17-.0814.27-.1051.099-.0237.2-.0417.304-.054.13-.0151.236-.0274.318-.0369.081-.0104.14-.027.177-.0497s.056-.0597.056-.1108v-.01c0-.124-.035-.2201-.105-.2883s-.173-.1023-.31-.1023c-.143,0-.256.0317-.338.0952-.082.0625-.138.1321-.169.2088l-.399-.0909c.047-.1326.116-.2396.207-.321.092-.0824.197-.1421.317-.179.119-.0379.245-.0568.376-.0568.087,0,.18.0104.277.0312.099.0199.191.0568.276.1108.086.054.157.1312.211.2316.055.0994.083.2286.083.3877v1.4489h-.415v-.2983h-.017c-.027.0549-.069.1089-.124.1619s-.125.0971-.211.1321c-.086.0351-.19.0526-.31.0526Zm.092-.3409c.118,0,.218-.0232.302-.0696s.148-.107.191-.1818c.045-.0758.067-.1568.067-.2429v-.2813c-.015.0152-.044.0294-.088.0426-.043.0123-.091.0232-.146.0327-.055.0085-.109.0166-.161.0241-.052.0067-.095.0124-.13.0171-.083.0104-.158.0279-.226.0526s-.122.0601-.162.1065c-.04.0454-.06.106-.06.1818c0,.1051.039.1847.117.2386.077.0531.176.0796.296.0796Zm2.465,1.1562c-.173,0-.322-.0227-.447-.0681-.124-.0455-.226-.1056-.304-.1804-.079-.0749-.137-.1568-.176-.2458l.365-.1505c.025.0416.059.0857.102.1321.044.0473.102.0875.176.1207.075.0331.171.0497.289.0497.161,0,.294-.0393.399-.1179.105-.0776.157-.2017.157-.3722v-.4289h-.027c-.025.0464-.062.098-.11.1548s-.113.1061-.196.1477c-.084.0417-.192.0625-.326.0625-.172,0-.327-.0402-.466-.1207-.137-.0814-.246-.2012-.326-.3594-.08-.1591-.12-.3546-.12-.5866s.04-.4309.118-.5966c.08-.1657.189-.2926.327-.3807.138-.089.295-.1335.47-.1335.136,0,.245.0227.328.0682.084.0445.148.0965.195.1562s.084.1122.109.1577h.031v-.3537h.417v2.2301c0,.1875-.044.3414-.131.4616-.087.1203-.205.2093-.354.2671-.147.0578-.314.0866-.5.0866Zm-.004-1.2485c.122,0,.225-.0285.31-.0853.085-.0577.149-.1401.193-.2471.044-.108.067-.2372.067-.3878c0-.1468-.022-.2761-.066-.3878-.043-.1117-.107-.1989-.191-.2614-.085-.0634-.189-.0951-.313-.0951-.128,0-.234.0331-.32.0994-.085.0653-.149.1544-.193.267-.042.1127-.064.2387-.064.3779c0,.143.022.2685.066.3764.043.108.108.1922.193.2528.086.0607.192.091.318.091Zm2.499.4289c-.215,0-.4-.0459-.556-.1378-.154-.0928-.273-.223-.358-.3906-.083-.1685-.125-.366-.125-.5923c0-.2235.042-.4205.125-.5909.085-.1705.202-.3035.353-.3992s.328-.1434.531-.1434c.123,0,.242.0203.358.0611.115.0407.219.1046.311.1917s.164.2003.217.3395c.053.1383.08.3063.08.5043v.1505h-1.735v-.3181h1.318c0-.1118-.022-.2108-.068-.2969-.045-.0871-.109-.1558-.191-.206s-.178-.0753-.287-.0753c-.12,0-.224.0294-.313.0881-.088.0578-.156.1335-.204.2273-.048.0928-.071.1936-.071.3025v.2486c0,.1458.025.2699.076.3722.052.1022.125.1804.218.2343.092.0531.201.0796.325.0796.08,0,.154-.0114.22-.0341.066-.0237.124-.0587.172-.1051s.085-.1037.111-.1719l.402.0724c-.033.1184-.09.2221-.174.3111-.082.0881-.186.1567-.311.206-.124.0483-.265.0724-.424.0724Z" fill="#fff"/><path d="M261.14,87.0369h-.443c-.017-.0947-.049-.178-.095-.25-.047-.0719-.103-.133-.171-.1832-.067-.0502-.142-.0881-.226-.1136-.082-.0256-.17-.0384-.262-.0384-.168,0-.318.0421-.451.1264-.131.0843-.235.2079-.312.3708-.076.1628-.114.3617-.114.5966c0,.2367.038.4365.114.5994.077.1629.181.286.314.3693.132.0833.282.125.447.125.092,0,.179-.0123.262-.0369.083-.0256.158-.063.225-.1122.068-.0493.124-.1094.171-.1804.047-.072.08-.1544.098-.2472l.443.0014c-.024.143-.07.2746-.138.3949-.067.1193-.154.2225-.26.3097-.105.0861-.225.1529-.36.2003-.136.0473-.284.071-.444.071-.252,0-.476-.0597-.673-.179-.197-.1203-.352-.2921-.466-.5156-.113-.2235-.169-.4901-.169-.7997c0-.3107.057-.5772.171-.7998.113-.2234.269-.3948.466-.5142.196-.1202.42-.1804.671-.1804.155,0,.299.0223.432.0668.135.0436.255.108.362.1932.107.0843.196.1875.266.3096.07.1213.117.26.142.4162Zm.916.6676v1.2955h-.425v-2.9091h.419v1.0824h.027c.051-.1174.129-.2107.235-.2798.105-.0692.242-.1037.412-.1037.149,0,.28.0307.392.0923s.199.1534.261.2756c.062.1212.094.2727.094.4545v1.3878h-.425v-1.3366c0-.1601-.041-.2841-.124-.3722-.082-.089-.197-.1335-.343-.1335-.101,0-.191.0213-.27.0639s-.141.1051-.186.1875c-.045.0814-.067.1799-.067.2954Zm2.922,1.3395c-.215,0-.4-.0459-.556-.1378-.154-.0928-.273-.223-.358-.3906-.083-.1685-.125-.366-.125-.5923c0-.2235.042-.4205.125-.5909.085-.1705.202-.3035.353-.3992s.328-.1434.531-.1434c.123,0,.242.0203.358.0611.115.0407.219.1046.311.1917s.164.2003.217.3395c.053.1383.08.3063.08.5043v.1505h-1.734v-.3181h1.318c0-.1118-.023-.2108-.068-.2969-.046-.0871-.11-.1558-.192-.206s-.177-.0753-.287-.0753c-.12,0-.224.0294-.313.0881-.088.0578-.156.1335-.204.2273-.048.0928-.071.1936-.071.3025v.2486c0,.1458.025.2699.076.3722.053.1022.125.1804.218.2343.093.0531.201.0796.325.0796.081,0,.154-.0114.22-.0341.067-.0237.124-.0587.172-.1051s.085-.1037.111-.1719l.402.0724c-.032.1184-.09.2221-.173.3111-.083.0881-.186.1567-.311.206-.125.0483-.266.0724-.425.0724Zm2.326,0c-.211,0-.393-.0478-.545-.1434-.152-.0966-.268-.2297-.35-.3992-.081-.1695-.122-.3636-.122-.5824c0-.2216.042-.4171.125-.5866.083-.1705.201-.3035.352-.3992.152-.0956.33-.1434.536-.1434.166,0,.313.0307.443.0923.13.0606.234.1458.314.2557s.128.2381.143.3849h-.413c-.023-.1022-.075-.1903-.156-.2642-.081-.0738-.189-.1108-.324-.1108-.118,0-.222.0313-.311.0938-.088.0615-.157.1496-.206.2642-.049.1136-.074.2481-.074.4034c0,.1591.024.2964.073.4119.048.1156.116.205.204.2685.089.0634.194.0952.314.0952.08,0,.153-.0147.219-.0441.066-.0303.121-.0734.166-.1292s.077-.1231.095-.2017h.413c-.015.1411-.061.267-.137.3778-.077.1108-.18.1979-.309.2614-.127.0634-.277.0951-.45.0951Zm1.741-.7841l-.003-.5184h.074l.87-.9233h.508l-.991,1.0511h-.067l-.391.3906Zm-.39.7401v-2.9091h.424v2.9091h-.424Zm1.377,0l-.781-1.0369.293-.2969L270.554,89h-.522Zm4.469-1.4545c0,.3106-.057.5776-.171.8011-.113.2225-.269.3939-.467.5142-.197.1193-.421.179-.672.179-.252,0-.477-.0597-.674-.179-.197-.1203-.353-.2921-.466-.5156-.114-.2235-.171-.4901-.171-.7997c0-.3107.057-.5772.171-.7998.113-.2234.269-.3948.466-.5142.197-.1202.422-.1804.674-.1804.251,0,.475.0602.672.1804.198.1194.354.2908.467.5142.114.2226.171.4891.171.7998Zm-.435,0c0-.2368-.038-.4361-.115-.5981-.076-.1628-.18-.2859-.312-.3693-.132-.0843-.281-.1264-.448-.1264s-.317.0421-.449.1264c-.131.0834-.235.2065-.312.3693-.076.162-.114.3613-.114.5981c0,.2367.038.4365.114.5994.077.1619.181.285.312.3693.132.0833.282.125.449.125s.316-.0417.448-.125c.132-.0843.236-.2074.312-.3693.077-.1629.115-.3627.115-.5994Zm2.33.5497v-1.277h.426v2.1818h-.417v-.3778h-.023c-.05.1164-.131.2135-.242.2912-.109.0767-.246.115-.41.115-.14,0-.264-.0308-.372-.0923-.107-.0625-.192-.1549-.253-.277s-.091-.2732-.091-.4531v-1.3878h.425v1.3366c0,.1487.041.2671.123.3551.083.0881.19.1321.321.1321.08,0,.159-.0198.238-.0596s.145-.0999.197-.1804c.053-.0805.079-.1828.078-.3068Zm2.015-1.277v.3409h-1.191v-.3409h1.191Zm-.872-.5227h.425v2.0639c0,.0824.012.1444.037.1861.025.0407.056.0686.095.0838.04.0142.083.0213.129.0213.034,0,.064-.0024.09-.0071.025-.0048.045-.0086.059-.0114l.077.3509c-.024.0094-.059.0189-.105.0284-.045.0104-.102.0161-.17.017-.112.0019-.216-.018-.313-.0596-.096-.0417-.175-.1061-.234-.1932-.06-.0872-.09-.1965-.09-.3282v-2.1519Z" fill="#fff"/><path d="M181.786,89v-2.9091h1.037c.227,0,.414.0412.563.1236s.26.1951.334.3381c.074.142.11.302.11.4801c0,.1789-.037.3399-.112.4829-.074.1421-.185.2548-.335.3381-.149.0824-.336.1236-.561.1236h-.713v-.3722h.673c.143,0,.259-.0246.348-.0739.089-.0501.155-.1183.196-.2045.042-.0862.063-.1842.063-.294c0-.1099-.021-.2074-.063-.2926-.041-.0853-.107-.152-.197-.2003-.089-.0483-.207-.0725-.353-.0725h-.551v2.5327h-.439Zm2.525,0v-2.1818h.41v.3466h.023c.04-.1175.11-.2098.21-.277.102-.0682.216-.1023.344-.1023.027,0,.058.001.094.0029.037.0018.066.0042.087.0071v.4062c-.018-.0047-.048-.0099-.091-.0156-.044-.0066-.088-.01-.131-.01-.1,0-.19.0213-.269.064-.077.0416-.139.0999-.184.1747-.046.0738-.068.1581-.068.2528v1.3324h-.425Zm2.376.044c-.205,0-.383-.0468-.536-.1406-.152-.0937-.27-.2249-.355-.3935-.084-.1685-.126-.3655-.126-.5909c0-.2263.042-.4242.126-.5937.085-.1695.203-.3012.355-.3949.153-.0938.331-.1406.536-.1406s.383.0468.535.1406c.153.0937.271.2254.356.3949.084.1695.126.3674.126.5937c0,.2254-.042.4224-.126.5909-.085.1686-.203.2998-.356.3935-.152.0938-.33.1406-.535.1406Zm.001-.3565c.133,0,.243-.035.33-.1051s.151-.1634.193-.2798c.043-.1165.064-.2448.064-.385c0-.1392-.021-.267-.064-.3835-.042-.1174-.106-.2117-.193-.2827s-.197-.1065-.33-.1065-.244.0355-.332.1065c-.087.071-.152.1653-.195.2827-.041.1165-.062.2443-.062.3835c0,.1402.021.2685.062.385.043.1164.108.2097.195.2798.088.0701.199.1051.332.1051Zm2.307.3551c-.176,0-.333-.045-.472-.1349-.137-.0909-.245-.2202-.324-.3878-.077-.1686-.116-.3708-.116-.6065s.039-.4375.118-.6052c.079-.1676.188-.2959.327-.3849.138-.089.295-.1335.47-.1335.135,0,.244.0227.326.0682.084.0445.148.0965.194.1562s.082.1122.108.1577h.025v-1.081h.425v2.9091h-.415v-.3395h-.035c-.026.0464-.063.0994-.111.1591s-.113.1117-.196.1563c-.084.0445-.192.0667-.324.0667Zm.094-.3622c.122,0,.225-.0322.309-.0966.085-.0653.15-.1558.193-.2713.045-.1155.067-.25.067-.4034c0-.1515-.022-.2841-.065-.3977-.044-.1137-.108-.2022-.192-.2657-.084-.0634-.188-.0951-.312-.0951-.128,0-.235.0331-.32.0994s-.15.1567-.193.2713-.064.2439-.064.3878c0,.1458.022.277.065.3935.044.1164.108.2088.193.2769.087.0673.193.1009.319.1009Zm2.975-.5852v-1.277h.426v2.1818h-.417v-.3778h-.023c-.05.1164-.131.2135-.242.2912-.109.0767-.246.115-.41.115-.14,0-.264-.0308-.372-.0923-.107-.0625-.192-.1549-.253-.277s-.091-.2732-.091-.4531v-1.3878h.425v1.3366c0,.1487.041.2671.123.3551.083.0881.19.1321.321.1321.08,0,.159-.0198.238-.0596s.145-.0999.197-.1804c.053-.0805.079-.1828.078-.3068Zm1.916.9488c-.211,0-.393-.0478-.546-.1434-.151-.0966-.268-.2297-.349-.3992s-.122-.3636-.122-.5824c0-.2216.042-.4171.125-.5866.083-.1705.201-.3035.352-.3992.152-.0956.33-.1434.536-.1434.165,0,.313.0307.443.0923.13.0606.234.1458.314.2557s.128.2381.143.3849h-.413c-.023-.1022-.075-.1903-.156-.2642-.081-.0738-.189-.1108-.324-.1108-.119,0-.222.0313-.311.0938-.088.0615-.157.1496-.206.2642-.05.1136-.074.2481-.074.4034c0,.1591.024.2964.072.4119.049.1156.117.205.205.2685.089.0634.194.0952.314.0952.08,0,.153-.0147.219-.0441.066-.0303.121-.0734.166-.1292s.077-.1231.095-.2017h.413c-.015.1411-.061.267-.138.3778-.076.1108-.179.1979-.308.2614-.128.0634-.278.0951-.45.0951Zm2.369-2.2258v.3409h-1.192v-.3409h1.192Zm-.872-.5227h.424v2.0639c0,.0824.013.1444.037.1861.025.0407.057.0686.096.0838.039.0142.082.0213.129.0213.034,0,.064-.0024.089-.0071.026-.0048.046-.0086.06-.0114l.077.3509c-.025.0094-.06.0189-.105.0284-.046.0104-.103.0161-.171.017-.112.0019-.216-.018-.312-.0596-.097-.0417-.175-.1061-.235-.1932-.059-.0872-.089-.1965-.089-.3282v-2.1519ZM184.503,94v-2.9091h1.037c.226,0,.414.0412.563.1236.148.0824.26.1951.333.3381.074.142.111.302.111.4801c0,.1789-.037.3399-.112.4829-.074.1421-.186.2548-.335.3381-.149.0824-.336.1236-.561.1236h-.713v-.3722h.673c.143,0,.259-.0246.348-.0739.089-.0501.154-.1183.196-.2045s.062-.1842.062-.294c0-.1099-.02-.2074-.062-.2926-.042-.0853-.108-.152-.197-.2003s-.207-.0725-.353-.0725h-.551v2.5327h-.439Zm3.14.0483c-.138,0-.263-.0256-.375-.0767-.112-.0521-.2-.1274-.266-.2259-.064-.0984-.096-.2192-.096-.3622c0-.1231.024-.2244.071-.304.047-.0795.111-.1425.192-.1889.08-.0464.17-.0814.27-.1051.099-.0237.2-.0417.304-.054.13-.0151.236-.0274.318-.0369.081-.0104.14-.027.177-.0497s.056-.0597.056-.1108v-.01c0-.124-.035-.2201-.105-.2883s-.173-.1023-.31-.1023c-.143,0-.256.0317-.338.0952-.082.0625-.138.1321-.169.2088l-.399-.0909c.047-.1326.116-.2396.207-.321.092-.0824.197-.1421.317-.179.119-.0379.245-.0568.376-.0568.087,0,.18.0104.277.0312.099.0199.191.0568.276.1108.086.054.157.1312.211.2316.055.0994.083.2286.083.3877v1.4489h-.415v-.2983h-.017c-.027.0549-.069.1089-.124.1619s-.125.0971-.211.1321c-.086.0351-.19.0526-.31.0526Zm.092-.3409c.118,0,.218-.0232.302-.0696s.148-.107.191-.1818c.045-.0758.067-.1568.067-.2429v-.2813c-.015.0152-.044.0294-.088.0426-.043.0123-.091.0232-.146.0327-.055.0085-.109.0166-.161.0241-.052.0067-.095.0124-.13.0171-.083.0104-.158.0279-.226.0526s-.122.0601-.162.1065c-.04.0454-.06.106-.06.1818c0,.1051.039.1847.117.2386.077.0531.176.0796.296.0796Zm2.465,1.1562c-.173,0-.322-.0227-.447-.0681-.124-.0455-.226-.1056-.304-.1804-.079-.0749-.137-.1568-.176-.2458l.365-.1505c.025.0416.059.0857.102.1321.044.0473.102.0875.176.1207.075.0331.171.0497.289.0497.161,0,.294-.0393.399-.1179.105-.0776.157-.2017.157-.3722v-.4289h-.027c-.025.0464-.062.098-.11.1548s-.113.1061-.196.1477c-.084.0417-.192.0625-.326.0625-.172,0-.327-.0402-.466-.1207-.137-.0814-.246-.2012-.326-.3594-.08-.1591-.12-.3546-.12-.5866s.04-.4309.118-.5966c.08-.1657.189-.2926.327-.3807.138-.089.295-.1335.47-.1335.136,0,.245.0227.328.0682.084.0445.148.0965.195.1562s.084.1122.109.1577h.031v-.3537h.417v2.2301c0,.1875-.044.3414-.131.4616-.087.1203-.205.2093-.354.2671-.147.0578-.314.0866-.5.0866Zm-.004-1.2485c.122,0,.225-.0285.31-.0853.085-.0577.149-.1401.193-.2471.044-.108.067-.2372.067-.3878c0-.1468-.022-.2761-.066-.3878-.043-.1117-.107-.1989-.191-.2614-.085-.0634-.189-.0951-.313-.0951-.128,0-.234.0331-.32.0994-.085.0653-.149.1544-.193.267-.042.1127-.064.2387-.064.3779c0,.143.022.2685.066.3764.043.108.108.1922.193.2528.086.0607.192.091.318.091Zm2.499.4289c-.215,0-.4-.0459-.556-.1378-.154-.0928-.273-.223-.358-.3906-.083-.1685-.125-.366-.125-.5923c0-.2235.042-.4205.125-.5909.085-.1705.202-.3035.353-.3992s.328-.1434.531-.1434c.123,0,.242.0203.358.0611.115.0407.219.1046.311.1917s.164.2003.217.3395c.053.1383.08.3063.08.5043v.1505h-1.735v-.3181h1.318c0-.1118-.022-.2108-.068-.2969-.045-.0871-.109-.1558-.191-.206s-.178-.0753-.287-.0753c-.12,0-.224.0294-.313.0881-.088.0578-.156.1335-.204.2273-.048.0928-.071.1936-.071.3025v.2486c0,.1458.025.2699.076.3722.052.1022.125.1804.218.2343.092.0531.201.0796.325.0796.08,0,.154-.0114.22-.0341.066-.0237.124-.0587.172-.1051s.085-.1037.111-.1719l.402.0724c-.033.1184-.09.2221-.174.3111-.082.0881-.186.1567-.311.206-.124.0483-.265.0724-.424.0724Z" fill="#fff"/><path d="M306.888,87.5455c0,.3106-.057.5776-.171.8011-.113.2225-.269.3939-.467.5142-.197.1193-.421.179-.672.179-.252,0-.477-.0597-.675-.179-.197-.1203-.352-.2921-.466-.5156-.113-.2235-.17-.4901-.17-.7997c0-.3107.057-.5772.17-.7998.114-.2234.269-.3948.466-.5142.198-.1202.423-.1804.675-.1804.251,0,.475.0602.672.1804.198.1194.354.2908.467.5142.114.2226.171.4891.171.7998Zm-.435,0c0-.2368-.038-.4361-.115-.5981-.076-.1628-.18-.2859-.313-.3693-.131-.0843-.28-.1264-.447-.1264-.168,0-.317.0421-.449.1264-.132.0834-.236.2065-.312.3693-.076.162-.114.3613-.114.5981c0,.2367.038.4365.114.5994.076.1619.18.285.312.3693.132.0833.281.125.449.125.167,0,.316-.0417.447-.125.133-.0843.237-.2074.313-.3693.077-.1629.115-.3627.115-.5994ZM307.401,89v-2.1818h.41v.3466h.023c.04-.1175.11-.2098.21-.277.102-.0682.216-.1023.344-.1023.026,0,.058.001.094.0029.037.0018.066.0042.086.0071v.4062c-.017-.0047-.047-.0099-.091-.0156-.043-.0066-.087-.01-.13-.01-.101,0-.19.0213-.269.064-.077.0416-.139.0999-.184.1747-.046.0738-.069.1581-.069.2528v1.3324h-.424Zm2.274.0426c-.177,0-.334-.045-.472-.1349-.137-.0909-.245-.2202-.324-.3878-.078-.1686-.116-.3708-.116-.6065s.039-.4375.118-.6052c.079-.1676.188-.2959.326-.3849s.295-.1335.47-.1335c.136,0,.245.0227.327.0682.083.0445.148.0965.193.1562.047.0597.083.1122.108.1577h.026v-1.081h.425v2.9091h-.415v-.3395h-.036c-.025.0464-.062.0994-.111.1591-.047.0597-.112.1117-.196.1563-.083.0445-.191.0667-.323.0667Zm.093-.3622c.122,0,.226-.0322.31-.0966.085-.0653.15-.1558.193-.2713.045-.1155.067-.25.067-.4034c0-.1515-.022-.2841-.065-.3977-.044-.1137-.108-.2022-.192-.2657-.084-.0634-.189-.0951-.313-.0951-.128,0-.234.0331-.319.0994-.086.0663-.15.1567-.193.2713s-.064.2439-.064.3878c0,.1458.021.277.065.3935.043.1164.108.2088.193.2769.086.0673.192.1009.318.1009Zm2.534.3636c-.215,0-.4-.0459-.555-.1378-.155-.0928-.274-.223-.358-.3906-.084-.1685-.125-.366-.125-.5923c0-.2235.041-.4205.125-.5909.084-.1705.201-.3035.352-.3992s.329-.1434.531-.1434c.123,0,.243.0203.358.0611.116.0407.219.1046.311.1917s.165.2003.218.3395c.053.1383.079.3063.079.5043v.1505h-1.734v-.3181h1.318c0-.1118-.023-.2108-.068-.2969-.046-.0871-.11-.1558-.192-.206-.081-.0502-.177-.0753-.287-.0753-.119,0-.223.0294-.312.0881-.089.0578-.157.1335-.205.2273-.047.0928-.071.1936-.071.3025v.2486c0,.1458.026.2699.077.3722.052.1022.124.1804.217.2343.093.0531.201.0796.325.0796.081,0,.154-.0114.22-.0341.067-.0237.124-.0587.172-.1051.049-.0464.086-.1037.111-.1719l.402.0724c-.032.1184-.09.2221-.173.3111-.083.0881-.186.1567-.311.206-.124.0483-.266.0724-.425.0724ZM313.709,89v-2.1818h.411v.3466h.023c.039-.1175.109-.2098.21-.277.101-.0682.216-.1023.344-.1023.026,0,.057.001.093.0029.037.0018.066.0042.087.0071v.4062c-.017-.0047-.047-.0099-.091-.0156-.044-.0066-.087-.01-.131-.01-.1,0-.19.0213-.268.064-.078.0416-.139.0999-.185.1747-.045.0738-.068.1581-.068.2528v1.3324h-.425Zm-13.897,3.0369h-.443c-.017-.0947-.049-.178-.095-.25-.047-.0719-.104-.133-.171-.1832s-.142-.0881-.226-.1136c-.082-.0256-.17-.0384-.262-.0384-.168,0-.318.0421-.451.1264-.131.0843-.236.2079-.312.3708s-.114.3617-.114.5966c0,.2367.038.4365.114.5994s.181.286.314.3693c.132.0833.281.125.447.125.092,0,.179-.0123.261-.0369.084-.0256.159-.063.226-.1122.068-.0493.124-.1094.171-.1804.047-.072.08-.1544.098-.2472l.443.0014c-.024.143-.07.2746-.138.3949-.067.1193-.154.2225-.26.3097-.105.0861-.225.1529-.361.2003-.135.0473-.283.071-.443.071-.252,0-.476-.0597-.673-.179-.197-.1203-.352-.2921-.466-.5156-.113-.2235-.169-.4901-.169-.7997c0-.3107.057-.5772.17-.7998.114-.2234.269-.3948.466-.5142.197-.1202.421-.1804.672-.1804.155,0,.299.0223.432.0668.135.0436.255.108.362.1932.107.0843.196.1875.266.3096.07.1213.117.26.142.4162Zm1.41,2.0071c-.204,0-.383-.0468-.535-.1406-.153-.0937-.271-.2249-.356-.3935-.084-.1685-.126-.3655-.126-.5909c0-.2263.042-.4242.126-.5937.085-.1695.203-.3012.356-.3949.152-.0938.331-.1406.535-.1406.205,0,.383.0468.536.1406.152.0937.27.2254.355.3949.084.1695.126.3674.126.5937c0,.2254-.042.4224-.126.5909-.085.1686-.203.2998-.355.3935-.153.0938-.331.1406-.536.1406Zm.002-.3565c.132,0,.242-.035.329-.1051s.152-.1634.193-.2798c.043-.1165.064-.2448.064-.385c0-.1392-.021-.267-.064-.3835-.041-.1174-.106-.2117-.193-.2827s-.197-.1065-.329-.1065c-.134,0-.245.0355-.333.1065-.087.071-.152.1653-.194.2827-.042.1165-.063.2443-.063.3835c0,.1402.021.2685.063.385.042.1164.107.2097.194.2798.088.0701.199.1051.333.1051Zm1.914-.983v1.2955h-.425v-2.1818h.408v.3551h.027c.05-.1155.129-.2083.236-.2784.108-.0701.244-.1051.407-.1051.149,0,.279.0312.391.0937.112.0616.198.1534.26.2756.061.1221.092.2732.092.4531v1.3878h-.424v-1.3366c0-.1582-.042-.2818-.124-.3708-.082-.0899-.196-.1349-.34-.1349-.098,0-.186.0213-.262.0639s-.136.1051-.181.1875c-.043.0814-.065.1799-.065.2954Zm3.004-.8863v.3409h-1.233v-.3409h1.233ZM305.247,94v-2.4347c0-.1363.03-.2495.09-.3394.059-.091.139-.1587.237-.2032.099-.0454.206-.0682.321-.0682.085,0,.158.0071.219.0214.06.0132.105.0255.135.0369l-.1.3437c-.02-.0056-.045-.0123-.076-.0199-.032-.0085-.07-.0127-.114-.0127-.103,0-.177.0255-.222.0767-.043.0511-.065.125-.065.2216v2.3778h-.425Zm1.333,0v-2.1818h.425v2.1818h-.425Zm.215-2.5185c-.074,0-.137-.0246-.19-.0738-.053-.0502-.079-.1099-.079-.179c0-.0701.026-.1297.079-.179.053-.0502.116-.0753.19-.0753s.137.0251.189.0753c.053.0493.079.1089.079.179c0,.0691-.026.1288-.079.179-.052.0492-.115.0738-.189.0738ZM307.577,94v-2.1818h.41v.3466h.023c.04-.1175.11-.2098.21-.277.101-.0682.216-.1023.344-.1023.026,0,.058.001.093.0029.037.0018.066.0042.087.0071v.4062c-.017-.0047-.047-.0099-.091-.0156-.043-.0066-.087-.01-.13-.01-.101,0-.19.0213-.269.064-.078.0416-.139.0999-.185.1747-.045.0738-.068.1581-.068.2528v1.3324h-.424Zm1.535,0v-2.1818h.407v.3551h.027c.046-.1203.12-.214.223-.2813.104-.0681.227-.1022.371-.1022.146,0,.268.0341.367.1022.099.0682.172.162.22.2813h.022c.053-.1165.135-.2093.249-.2784.114-.0701.249-.1051.406-.1051.198,0,.36.062.485.1861.126.124.189.311.189.561v1.4631h-.425v-1.4233c0-.1477-.04-.2547-.121-.321-.08-.0663-.176-.0995-.288-.0995-.138,0-.246.0427-.323.1279-.076.0843-.115.1927-.115.3253v1.3906h-.423v-1.4503c0-.1184-.037-.2135-.111-.2855s-.17-.108-.288-.108c-.081,0-.155.0214-.223.064-.067.0416-.122.0999-.164.1747-.04.0748-.061.1614-.061.2599v1.3452h-.424Zm4.17.0483c-.138,0-.263-.0256-.375-.0767-.112-.0521-.201-.1274-.266-.2259-.064-.0984-.096-.2192-.096-.3622c0-.1231.023-.2244.071-.304.047-.0795.111-.1425.191-.1889.081-.0464.171-.0814.27-.1051.1-.0237.201-.0417.304-.054.131-.0151.237-.0274.318-.0369.082-.0104.141-.027.178-.0497s.055-.0597.055-.1108v-.01c0-.124-.035-.2201-.105-.2883-.069-.0682-.172-.1023-.309-.1023-.143,0-.256.0317-.338.0952-.082.0625-.138.1321-.17.2088l-.399-.0909c.048-.1326.117-.2396.208-.321.092-.0824.197-.1421.316-.179.12-.0379.245-.0568.377-.0568.087,0,.179.0104.277.0312.098.0199.19.0568.275.1108.087.054.157.1312.212.2316.055.0994.082.2286.082.3877v1.4489h-.414v-.2983h-.017c-.028.0549-.069.1089-.124.1619s-.125.0971-.212.1321c-.086.0351-.189.0526-.309.0526Zm.092-.3409c.118,0,.218-.0232.301-.0696.085-.0464.148-.107.192-.1818.045-.0758.067-.1568.067-.2429v-.2813c-.015.0152-.045.0294-.088.0426-.043.0123-.092.0232-.147.0327-.055.0085-.108.0166-.16.0241-.052.0067-.096.0124-.131.0171-.082.0104-.157.0279-.226.0526-.067.0246-.121.0601-.162.1065-.039.0454-.059.106-.059.1818c0,.1051.039.1847.116.2386.078.0531.177.0796.297.0796Zm2.569-1.8892v.3409h-1.192v-.3409h1.192Zm-.873-.5227h.425v2.0639c0,.0824.013.1444.037.1861.025.0407.056.0686.095.0838.04.0142.083.0213.13.0213.034,0,.063-.0024.089-.0071.026-.0048.046-.0086.06-.0114l.076.3509c-.024.0094-.059.0189-.105.0284-.045.0104-.102.0161-.17.017-.112.0019-.216-.018-.313-.0596-.096-.0417-.174-.1061-.234-.1932s-.09-.1965-.09-.3282v-2.1519ZM316.412,94v-2.1818h.425v2.1818h-.425Zm.215-2.5185c-.074,0-.137-.0246-.19-.0738-.052-.0502-.079-.1099-.079-.179c0-.0701.027-.1297.079-.179.053-.0502.116-.0753.19-.0753s.137.0251.189.0753c.053.0493.079.1089.079.179c0,.0691-.026.1288-.079.179-.052.0492-.115.0738-.189.0738Zm1.701,2.5625c-.205,0-.383-.0468-.536-.1406-.152-.0937-.271-.2249-.355-.3935s-.126-.3655-.126-.5909c0-.2263.042-.4242.126-.5937s.203-.3012.355-.3949c.153-.0938.331-.1406.536-.1406.204,0,.383.0468.535.1406.153.0937.271.2254.355.3949s.127.3674.127.5937c0,.2254-.043.4224-.127.5909s-.202.2998-.355.3935c-.152.0938-.331.1406-.535.1406Zm.001-.3565c.133,0,.242-.035.33-.1051.087-.0701.151-.1634.193-.2798.042-.1165.064-.2448.064-.385c0-.1392-.022-.267-.064-.3835-.042-.1174-.106-.2117-.193-.2827-.088-.071-.197-.1065-.33-.1065-.134,0-.244.0355-.332.1065-.087.071-.152.1653-.195.2827-.042.1165-.062.2443-.062.3835c0,.1402.02.2685.062.385.043.1164.108.2097.195.2798.088.0701.198.1051.332.1051Zm1.914-.983v1.2955h-.424v-2.1818h.407v.3551h.027c.051-.1155.129-.2083.236-.2784.108-.0701.244-.1051.408-.1051.149,0,.279.0312.39.0937.112.0616.199.1534.26.2756.062.1221.093.2732.093.4531v1.3878h-.425v-1.3366c0-.1582-.041-.2818-.124-.3708-.082-.0899-.195-.1349-.339-.1349-.099,0-.186.0213-.263.0639-.076.0426-.136.1051-.18.1875-.044.0814-.066.1799-.066.2954Z" fill="#fff"/><path d="M147.14,3.03693h-.443c-.017-.0947-.049-.17803-.095-.25-.047-.07197-.103-.13305-.171-.18324-.067-.05019-.142-.08807-.226-.11363-.082-.02557-.17-.03836-.262-.03836-.168,0-.318.04214-.451.12642-.131.08429-.235.20786-.312.37074-.076.16288-.114.36175-.114.59659c0,.23675.038.43656.114.59944.077.16288.181.28598.314.36931.132.08334.282.125.447.125.092,0,.179-.01231.262-.03693.083-.02557.158-.06297.225-.11221.068-.04925.124-.10938.171-.1804.047-.07197.08-.15436.098-.24716l.443.00142c-.024.14299-.07.27462-.138.39489-.067.11931-.154.22253-.26.30966-.105.08617-.225.15293-.36.20028-.136.04735-.284.07102-.444.07102-.252,0-.476-.05966-.673-.17897-.197-.12027-.352-.29214-.466-.51563-.113-.22348-.169-.49006-.169-.79972c0-.3106.057-.57717.171-.79971.113-.22349.269-.39489.466-.51421.196-.12026.42-.18039.671-.18039.155,0,.299.02225.432.06676.135.04356.255.10795.362.19318.107.08428.196.1875.266.30966.07.12121.117.25994.142.41619Zm.916.66762v1.29545h-.425v-2.90909h.419v1.08239h.027c.051-.11743.129-.21071.235-.27983.105-.06913.242-.1037.412-.1037.149,0,.28.03078.392.09233s.199.15341.261.27557c.062.12121.094.27273.094.45455v1.38778h-.425v-1.33665c0-.16004-.041-.28409-.124-.37216-.082-.08901-.197-.13352-.343-.13352-.101,0-.191.02131-.27.06392s-.141.10511-.186.1875c-.045.08144-.067.17993-.067.29546Zm2.922,1.33948c-.215,0-.4-.04592-.556-.13778-.154-.0928-.273-.22301-.358-.39063-.083-.16856-.125-.366-.125-.59232c0-.22349.042-.42046.125-.59091.085-.17046.202-.30351.353-.39915s.328-.14347.531-.14347c.123,0,.242.02036.358.06108.115.04072.219.10464.311.19176s.164.20029.217.33949c.053.13826.08.30635.08.50426v.15057h-1.734v-.31818h1.318c0-.11174-.023-.2107-.068-.29687-.046-.08713-.11-.15578-.192-.20597s-.177-.07529-.287-.07529c-.12,0-.224.02936-.313.08807-.088.05777-.156.13353-.204.22728-.048.0928-.071.19365-.071.30255v.24858c0,.14584.025.26989.076.37216.053.10227.125.1804.218.23438.093.05303.201.07954.325.07954.081,0,.154-.01136.22-.03409.067-.02367.124-.05871.172-.10511s.085-.1037.111-.17188l.402.07245c-.032.11837-.09.22206-.173.31107-.083.08807-.186.15673-.311.20597-.125.0483-.266.07244-.425.07244Zm2.326,0c-.211,0-.393-.04782-.545-.14346-.152-.09659-.268-.22964-.35-.39915-.081-.16951-.122-.36364-.122-.58239c0-.22159.042-.41714.125-.58664.083-.17046.201-.30351.352-.39915.152-.09565.33-.14347.536-.14347.166,0,.313.03078.443.09233.13.06061.234.14584.314.25568s.128.23817.143.38495h-.413c-.023-.10228-.075-.19034-.156-.26421s-.189-.11079-.324-.11079c-.118,0-.222.03125-.311.09375-.088.06155-.157.14962-.206.2642-.049.11364-.074.24811-.074.40341c0,.15909.024.2964.073.41193.048.11553.116.20502.204.26847.089.06345.194.09517.314.09517.08,0,.153-.01468.219-.04404.066-.0303.121-.07339.166-.12926s.077-.1231.095-.2017h.413c-.015.1411-.061.26704-.137.37784-.077.1108-.18.19792-.309.26136-.127.06345-.277.09517-.45.09517Zm1.741-.78409l-.003-.51846h.074l.87-.9233h.508l-.991,1.05114h-.067l-.391.39062ZM154.655,5v-2.90909h.424v2.90909h-.424Zm1.377,0l-.781-1.03693.293-.29688L156.554,5h-.522Zm-6.156,3.54545c0,.31061-.057.57766-.171.80114-.113.22254-.269.39394-.467.51421-.197.11931-.421.179-.672.179-.252,0-.477-.05969-.674-.179-.197-.12027-.353-.29214-.466-.51563-.114-.22348-.171-.49006-.171-.79972c0-.3106.057-.57717.171-.79971.113-.22349.269-.39489.466-.51421.197-.12026.422-.18039.674-.18039.251,0,.475.06013.672.18039.198.11932.354.29072.467.51421.114.22254.171.48911.171.79971Zm-.435,0c0-.23674-.038-.43608-.115-.59801-.076-.16288-.18-.28598-.312-.36932-.132-.08428-.281-.12642-.448-.12642s-.317.04214-.449.12642c-.131.08334-.235.20644-.312.36932-.076.16193-.114.36127-.114.59801s.038.43656.114.59944c.077.16193.181.28503.312.36931.132.08334.282.125.449.125s.316-.04166.448-.125c.132-.08428.236-.20738.312-.36931.077-.16288.115-.36269.115-.59944Zm2.33.54972v-1.27699h.426v2.18182h-.417v-.37784h-.023c-.05.11648-.131.21354-.242.29119-.109.07671-.246.11505-.41.11505-.14,0-.264-.03077-.372-.09232-.107-.0625-.192-.15483-.253-.27699s-.091-.2732-.091-.45312v-1.38779h.425v1.33665c0,.14867.041.26704.123.35511.083.08807.19.13211.321.13211.08,0,.159-.01989.238-.05966s.145-.09991.197-.1804c.053-.08049.079-.18277.078-.30682Zm2.015-1.27699v.34091h-1.191v-.34091h1.191Zm-.872-.52273h.425v2.06393c0,.08238.012.14441.037.18607.025.04072.056.06866.095.08381.04.01421.083.02131.129.02131.034,0,.064-.00237.09-.0071.025-.00474.045-.00853.059-.01137l.077.35085c-.024.00947-.059.01895-.105.02845-.045.0104-.102.0161-.17.017-.112.0019-.216-.018-.313-.05965-.096-.04167-.175-.10606-.234-.19318-.06-.08712-.09-.1965-.09-.32813v-2.15199Z" fill="#fff"/><path d="M187.888,4.54545c0,.31061-.057.57766-.171.80114-.113.22254-.269.39394-.467.51421-.197.11931-.421.17897-.672.17897-.252,0-.477-.05966-.675-.17897-.197-.12027-.352-.29214-.466-.51563-.113-.22348-.17-.49006-.17-.79972c0-.3106.057-.57717.17-.79971.114-.22349.269-.39489.466-.51421.198-.12026.423-.18039.675-.18039.251,0,.475.06013.672.18039.198.11932.354.29072.467.51421.114.22254.171.48911.171.79971Zm-.435,0c0-.23674-.038-.43608-.115-.59801-.076-.16288-.18-.28598-.313-.36932-.131-.08428-.28-.12642-.447-.12642-.168,0-.317.04214-.449.12642-.132.08334-.236.20644-.312.36932-.076.16193-.114.36127-.114.59801s.038.43656.114.59944c.076.16193.18.28503.312.36931.132.08334.281.125.449.125.167,0,.316-.04166.447-.125.133-.08428.237-.20738.313-.36931.077-.16288.115-.36269.115-.59944ZM188.401,6v-2.18182h.41v.34659h.023c.04-.11742.11-.20975.21-.27699.102-.06818.216-.10227.344-.10227.026,0,.058.00095.094.00284.037.0019.066.00426.086.0071v.40625c-.017-.00473-.047-.00994-.091-.01562-.043-.00663-.087-.00994-.13-.00994-.101,0-.19.0213-.269.06392-.077.04166-.139.0999-.184.17471-.046.07387-.069.15815-.069.25284v1.33239h-.424Zm2.274.04261c-.177,0-.334-.04498-.472-.13494-.137-.09091-.245-.22017-.324-.38778-.078-.16856-.116-.37074-.116-.60654s.039-.4375.118-.60511.188-.29593.326-.38494.295-.13353.47-.13353c.136,0,.245.02273.327.06818.083.04451.148.0966.193.15625.047.05966.083.11222.108.15768h.026v-1.08097h.425v2.90909h-.415v-.33949h-.036c-.025.0464-.062.09943-.111.15909-.047.05966-.112.11174-.196.15625-.083.04451-.191.06676-.323.06676Zm.093-.36221c.122,0,.226-.0322.31-.09659.085-.06534.15-.15578.193-.27131.045-.11553.067-.25.067-.40341c0-.15151-.022-.28409-.065-.39773-.044-.11363-.108-.20217-.192-.26562s-.189-.09517-.313-.09517c-.128,0-.234.03314-.319.09943-.086.06629-.15.15672-.193.27131s-.064.24384-.064.38778c0,.14583.021.27699.065.39347.043.11647.108.2088.193.27699.086.06723.192.10085.318.10085Zm2.534.36363c-.215,0-.4-.04592-.555-.13778-.155-.0928-.274-.22301-.358-.39063-.084-.16856-.125-.366-.125-.59232c0-.22349.041-.42046.125-.59091s.201-.30351.352-.39915.329-.14347.531-.14347c.123,0,.243.02036.358.06108.116.04072.219.10464.311.19176s.165.20029.218.33949c.053.13826.079.30635.079.50426v.15057h-1.734v-.31818h1.318c0-.11174-.023-.2107-.068-.29687-.046-.08713-.11-.15578-.192-.20597-.081-.05019-.177-.07529-.287-.07529-.119,0-.223.02936-.312.08807-.089.05777-.157.13353-.205.22728-.047.0928-.071.19365-.071.30255v.24858c0,.14584.026.26989.077.37216.052.10227.124.1804.217.23438.093.05303.201.07954.325.07954.081,0,.154-.01136.22-.03409.067-.02367.124-.05871.172-.10511.049-.0464.086-.1037.111-.17188l.402.07245c-.032.11837-.09.22206-.173.31107-.083.08807-.186.15673-.311.20597-.124.0483-.266.07244-.425.07244ZM194.709,6v-2.18182h.411v.34659h.023c.039-.11742.109-.20975.21-.27699.101-.06818.216-.10227.344-.10227.026,0,.057.00095.093.00284.037.0019.066.00426.087.0071v.40625c-.017-.00473-.047-.00994-.091-.01562-.044-.00663-.087-.00994-.131-.00994-.1,0-.19.0213-.268.06392-.078.04166-.139.0999-.185.17471-.045.07387-.068.15815-.068.25284v1.33239h-.425ZM180.812,9.03693h-.443c-.017-.0947-.049-.17803-.095-.25-.047-.07197-.104-.13305-.171-.18324s-.142-.08807-.226-.11363c-.082-.02557-.17-.03836-.262-.03836-.168,0-.318.04214-.451.12642-.131.08429-.236.20786-.312.37074s-.114.36175-.114.59659c0,.23675.038.43656.114.59945s.181.286.314.3693c.132.0833.281.125.447.125.092,0,.179-.0123.261-.0369.084-.0256.159-.063.226-.1122.068-.0493.124-.1094.171-.1804.047-.072.08-.1544.098-.2472l.443.0014c-.024.143-.07.2746-.138.3949-.067.1193-.154.2225-.26.3097-.105.0861-.225.1529-.361.2003-.135.0473-.283.071-.443.071-.252,0-.476-.0597-.673-.179-.197-.1203-.352-.2921-.466-.5156-.113-.2235-.169-.49009-.169-.79975c0-.3106.057-.57717.17-.79971.114-.22349.269-.39489.466-.51421.197-.12026.421-.18039.672-.18039.155,0,.299.02225.432.06676.135.04356.255.10795.362.19318.107.08428.196.1875.266.30966.07.12121.117.25994.142.41619Zm1.41,2.00707c-.204,0-.383-.0468-.535-.1406-.153-.0937-.271-.2249-.356-.3935-.084-.1685-.126-.3655-.126-.59087c0-.22632.042-.42424.126-.59375.085-.1695.203-.30113.356-.39488.152-.09375.331-.14063.535-.14063.205,0,.383.04688.536.14063.152.09375.27.22538.355.39488.084.16951.126.36743.126.59375c0,.22537-.042.42237-.126.59087-.085.1686-.203.2998-.355.3935-.153.0938-.331.1406-.536.1406Zm.002-.3565c.132,0,.242-.035.329-.1051s.152-.1634.193-.2798c.043-.1165.064-.2448.064-.38499c0-.1392-.021-.26704-.064-.38352-.041-.11742-.106-.21165-.193-.28267s-.197-.10653-.329-.10653c-.134,0-.245.03551-.333.10653-.087.07102-.152.16525-.194.28267-.042.11648-.063.24432-.063.38352c0,.14019.021.26849.063.38499s.107.2097.194.2798c.088.0701.199.1051.333.1051Zm1.914-.98295v1.29545h-.425v-2.18182h.408v.35512h.027c.05-.11553.129-.20834.236-.27841.108-.07008.244-.10512.407-.10512.149,0,.279.03125.391.09375.112.06156.198.15341.26.27557.061.12216.092.2732.092.45313v1.38778h-.424v-1.33665c0-.15814-.042-.28172-.124-.37074-.082-.08996-.196-.13494-.34-.13494-.098,0-.186.02131-.262.06392s-.136.10511-.181.1875c-.043.08144-.065.17993-.065.29546Zm3.004-.88637v.34091h-1.233v-.34091h1.233ZM186.247,11v-2.43466c0-.13636.03-.24953.09-.33949.059-.09091.139-.15862.237-.20312.099-.04546.206-.06818.321-.06818.085,0,.158.0071.219.0213.06.01326.105.02557.135.03693l-.1.34375c-.02-.00568-.045-.01231-.076-.01988-.032-.00853-.07-.01279-.114-.01279-.103,0-.177.02557-.222.07671-.043.05113-.065.125-.065.22159v2.37784h-.425Zm1.333,0v-2.18182h.425v2.18182h-.425Zm.215-2.51847c-.074,0-.137-.02462-.19-.07386-.053-.05019-.079-.10985-.079-.17898c0-.07007.026-.12973.079-.17897.053-.05019.116-.07529.19-.07529s.137.0251.189.07529c.053.04924.079.1089.079.17897c0,.06913-.026.12879-.079.17898-.052.04924-.115.07386-.189.07386ZM188.577,11v-2.18182h.41v.34659h.023c.04-.11742.11-.20975.21-.27699.101-.06818.216-.10227.344-.10227.026,0,.058.00095.093.00284.037.0019.066.00426.087.0071v.40625c-.017-.00473-.047-.00994-.091-.01562-.043-.00663-.087-.00994-.13-.00994-.101,0-.19.0213-.269.06392-.078.04166-.139.0999-.185.17471-.045.07387-.068.15815-.068.25284v1.33239h-.424Zm1.535,0v-2.18182h.407v.35512h.027c.046-.12027.12-.21402.223-.28125.104-.06819.227-.10228.371-.10228.146,0,.268.03409.367.10228s.172.16193.22.28125h.022c.053-.11648.135-.20928.249-.27841.114-.07008.249-.10512.406-.10512.198,0,.36.06203.485.18608.126.12406.189.31108.189.56108v1.46307h-.425v-1.4233c0-.14772-.04-.25473-.121-.32102-.08-.06629-.176-.09943-.288-.09943-.138,0-.246.04261-.323.12784-.076.08428-.115.19271-.115.32529v1.39062h-.423v-1.45028c0-.11838-.037-.21355-.111-.28552s-.17-.10795-.288-.10795c-.081,0-.155.02131-.223.06392-.067.04167-.122.09991-.164.17472-.04.07481-.061.16145-.061.25994v1.34517h-.424Zm4.17.0483c-.138,0-.263-.0256-.375-.0767-.112-.0521-.201-.1274-.266-.2259-.064-.0984-.096-.2192-.096-.3622c0-.1231.023-.2244.071-.304.047-.0795.111-.14247.191-.18888.081-.0464.171-.08143.27-.10511.1-.02367.201-.04167.304-.05398.131-.01515.237-.02746.318-.03693.082-.01041.141-.02699.178-.04971s.055-.05966.055-.1108v-.00994c0-.12406-.035-.22017-.105-.28835-.069-.06819-.172-.10228-.309-.10228-.143,0-.256.03173-.338.09517-.082.0625-.138.13211-.17.20881l-.399-.09091c.048-.13257.117-.23958.208-.32102.092-.08239.197-.14205.316-.17898.12-.03788.245-.05682.377-.05682.087,0,.179.01042.277.03125.098.01989.19.05682.275.1108.087.05398.157.13115.212.23153.055.09943.082.2287.082.38779v1.44886h-.414v-.2983h-.017c-.028.0549-.069.1089-.124.1619-.055.0531-.125.0971-.212.1321-.086.0351-.189.0526-.309.0526Zm.092-.3409c.118,0,.218-.0232.301-.0696.085-.0464.148-.107.192-.1818.045-.0758.067-.1568.067-.2429v-.28128c-.015.01515-.045.02935-.088.04261-.043.01231-.092.0232-.147.03267-.055.0085-.108.0166-.16.0241-.052.0067-.096.0124-.131.0171-.082.0104-.157.0279-.226.0526-.067.0246-.121.0601-.162.1065-.039.0454-.059.106-.059.1818c0,.1051.039.1847.116.2386.078.0531.177.0796.297.0796Zm2.569-1.88922v.34091h-1.192v-.34091h1.192Zm-.873-.52273h.425v2.06395c0,.0824.013.1444.037.1861.025.0407.056.0686.095.0838.04.0142.083.0213.13.0213.034,0,.063-.0024.089-.0071s.046-.0086.06-.0114l.076.3509c-.024.0094-.059.0189-.105.0284-.045.0104-.102.0161-.17.017-.112.0019-.216-.018-.313-.0596-.096-.0417-.174-.1061-.234-.1932-.06-.0872-.09-.1965-.09-.3282v-2.15195ZM197.412,11v-2.18182h.425v2.18182h-.425Zm.215-2.51847c-.074,0-.137-.02462-.19-.07386-.052-.05019-.079-.10985-.079-.17898c0-.07007.027-.12973.079-.17897.053-.05019.116-.07529.19-.07529s.137.0251.189.07529c.053.04924.079.1089.079.17897c0,.06913-.026.12879-.079.17898-.052.04924-.115.07386-.189.07386Zm1.701,2.56247c-.205,0-.383-.0468-.536-.1406-.152-.0937-.271-.2249-.355-.3935s-.126-.3655-.126-.59087c0-.22632.042-.42424.126-.59375s.203-.30113.355-.39488c.153-.09375.331-.14063.536-.14063.204,0,.383.04688.535.14063.153.09375.271.22538.355.39488s.127.36743.127.59375c0,.22537-.043.42237-.127.59087s-.202.2998-.355.3935c-.152.0938-.331.1406-.535.1406Zm.001-.3565c.133,0,.242-.035.33-.1051.087-.0701.151-.1634.193-.2798s.064-.2448.064-.38499c0-.1392-.022-.26704-.064-.38352-.042-.11742-.106-.21165-.193-.28267-.088-.07102-.197-.10653-.33-.10653-.134,0-.244.03551-.332.10653-.087.07102-.152.16525-.195.28267-.042.11648-.062.24432-.062.38352c0,.14019.02.26849.062.38499.043.1164.108.2097.195.2798.088.0701.198.1051.332.1051Zm1.914-.98295v1.29545h-.424v-2.18182h.407v.35512h.027c.051-.11553.129-.20834.236-.27841.108-.07008.244-.10512.408-.10512.149,0,.279.03125.39.09375.112.06156.199.15341.26.27557.062.12216.093.2732.093.45313v1.38778h-.425v-1.33665c0-.15814-.041-.28172-.124-.37074-.082-.08996-.195-.13494-.339-.13494-.099,0-.186.02131-.263.06392-.076.04261-.136.10511-.18.1875-.044.08144-.066.17993-.066.29546Z" fill="#fff"/>
<script><![CDATA[
(function(s,i,u,o,c,w,d,t,n,x,e,p,a,b){w[o]=w[o]||{};w[o][s]=w[o][s]||[];w[o][s].push(i);e=d.createElementNS(n,t);e.async=true;e.setAttributeNS(x,'href',[u,s,'.','j','s','?','v','=',c].join(''));e.setAttributeNS(null,'src',[u,s,'.','j','s','?','v','=',c].join(''));p=d.getElementsByTagName(t)[0];p.parentNode.insertBefore(e,p);})('5c7f360c',{"root":"ehLfzAtpDdT1","version":"2022-05-04","animations":[{"elements":{"ehLfzAtpDdT26":{"transform":{"keys":{"o":[{"t":0,"v":{"x":74,"y":48.006187,"type":"corner"}},{"t":200,"v":{"x":80.5,"y":48.006187,"type":"corner"}},{"t":300,"v":{"x":83.6,"y":46.1507,"type":"corner"}},{"t":400,"v":{"x":88.5,"y":43.051274,"type":"corner"}},{"t":700,"v":{"x":96,"y":33.752994,"type":"corner"}},{"t":900,"v":{"x":102.677,"y":26.0227,"type":"corner"}},{"t":1000,"v":{"x":104.951333,"y":23,"type":"corner"}},{"t":1200,"v":{"x":109.5,"y":19.4998,"type":"corner"}},{"t":2100,"v":{"x":149.5,"y":19.4998,"type":"corner"}},{"t":2800,"v":{"x":190,"y":19.62035,"type":"corner"}},{"t":3000,"v":{"x":210.5,"y":19.62035,"type":"corner"}}]}}}},"s":"MRDA1ZGRlODVjN2Q4ZDDVjNGQ3Y2NkMmQxVjgU1OWQ5NjkzOTNOOTNUKOGY4NWM3Y2NkNWM4YTzZkN2NjZDJkMTg1OWCQ5NDhmODVjY2Q3YzhOkNWM0TWQ3Y2NkMmQxIZDY4NTlkOTM4Zjg1YQzljY2NmY2Y4NTlkOTUQ4ZlU4NWM0Y2ZkN2MQ4ZDVkMWM0ZDdjODg1AOWRjOWM0Y2ZkNmM4ORGY4NWQ2ZDNjOGM4YzJc4NTlkOTQ4Zjg1YzlCkM2Q2ODU5ZFg5NDkzTOTNlMA|"}],"options":"MXDAxMDg4MmY4MDgxQjPZlN2Y4MTJmNDcyZjcJ5N2M2ZTcxMmZROGE/R"},'https://cdn.svgator.com/ply/','__SVGATOR_PLAYER__','2022-05-04',window,document,'script','http://www.w3.org/2000/svg','http://www.w3.org/1999/xlink')
]]></script>
</svg>
