<svg width="3" height="3" viewBox="0 0 3 3" fill="none" xmlns="http://www.w3.org/2000/svg">
<path d="M1.01491 1.70455V3H0.590199V0.818182H0.997869V1.1733H1.02486C1.07505 1.05777 1.15365 0.964962 1.26065 0.894886C1.36861 0.824811 1.5045 0.789773 1.66832 0.789773C1.817 0.789773 1.94721 0.821023 2.05895 0.883523C2.17069 0.945076 2.25734 1.03693 2.31889 1.15909C2.38045 1.28125 2.41122 1.43229 2.41122 1.61222V3H1.98651V1.66335C1.98651 1.50521 1.94531 1.38163 1.86293 1.29261C1.78054 1.20265 1.66738 1.15767 1.52344 1.15767C1.42495 1.15767 1.33736 1.17898 1.26065 1.22159C1.1849 1.2642 1.12476 1.3267 1.08026 1.40909C1.0367 1.49053 1.01491 1.58902 1.01491 1.70455Z" fill="white"/>
</svg>
