<svg width="3" height="4" viewBox="0 0 3 4" fill="none" xmlns="http://www.w3.org/2000/svg">
<path d="M2.34819 1.35085L1.96325 1.41903C1.94715 1.36979 1.92158 1.32292 1.88654 1.27841C1.85245 1.2339 1.80605 1.19744 1.74734 1.16903C1.68862 1.14062 1.61523 1.12642 1.52717 1.12642C1.4069 1.12642 1.30652 1.15341 1.22603 1.20739C1.14554 1.26042 1.10529 1.32907 1.10529 1.41335C1.10529 1.48627 1.13228 1.54498 1.18626 1.58949C1.24023 1.634 1.32736 1.67045 1.44762 1.69886L1.79421 1.77841C1.99497 1.82481 2.14459 1.89631 2.24308 1.9929C2.34156 2.08949 2.3908 2.21496 2.3908 2.36932C2.3908 2.5 2.35292 2.61648 2.27717 2.71875C2.20236 2.82008 2.09772 2.89962 1.96325 2.95739C1.82972 3.01515 1.67489 3.04403 1.49876 3.04403C1.25444 3.04403 1.0551 2.99195 0.900746 2.88778C0.74639 2.78267 0.651693 2.63352 0.616655 2.44034L1.02717 2.37784C1.05273 2.48485 1.10529 2.56581 1.18484 2.62074C1.26438 2.67472 1.36808 2.7017 1.49592 2.7017C1.63512 2.7017 1.74639 2.67282 1.82972 2.61506C1.91306 2.55634 1.95472 2.48485 1.95472 2.40057C1.95472 2.33239 1.92915 2.27509 1.87802 2.22869C1.82783 2.18229 1.75065 2.14725 1.64648 2.12358L1.27717 2.04261C1.07357 1.99621 0.923 1.92235 0.825462 1.82102C0.728871 1.7197 0.680575 1.59138 0.680575 1.43608C0.680575 1.30729 0.71656 1.1946 0.78853 1.09801C0.8605 1.00142 0.959931 0.926136 1.08683 0.872159C1.21372 0.817235 1.35908 0.789773 1.5229 0.789773C1.7587 0.789773 1.94431 0.840909 2.07972 0.943182C2.21514 1.04451 2.30463 1.1804 2.34819 1.35085Z" fill="white"/>
</svg>
