<svg width="3" height="4" viewBox="0 0 3 4" fill="none" xmlns="http://www.w3.org/2000/svg">
<path d="M2.11914 0.855114C2.10399 0.720644 2.04149 0.616477 1.93164 0.542614C1.82179 0.467803 1.68353 0.430398 1.51687 0.430398C1.39755 0.430398 1.29433 0.449337 1.20721 0.487216C1.12009 0.524148 1.05238 0.575284 1.00408 0.640625C0.956735 0.705019 0.933061 0.778409 0.933061 0.860795C0.933061 0.929924 0.94916 0.989583 0.981357 1.03977C1.0145 1.08996 1.05759 1.1321 1.11062 1.16619C1.1646 1.19934 1.22236 1.22727 1.28391 1.25C1.34547 1.27178 1.40465 1.28977 1.46147 1.30398L1.74556 1.37784C1.83836 1.40057 1.93353 1.43134 2.03107 1.47017C2.12861 1.509 2.21905 1.56013 2.30238 1.62358C2.38571 1.68703 2.45295 1.76562 2.50408 1.85938C2.55617 1.95312 2.58221 2.06534 2.58221 2.19602C2.58221 2.3608 2.5396 2.5071 2.45437 2.63494C2.37009 2.76278 2.24746 2.86364 2.08647 2.9375C1.92643 3.01136 1.73278 3.0483 1.5055 3.0483C1.2877 3.0483 1.09925 3.01373 0.940163 2.9446C0.781072 2.87547 0.656546 2.77746 0.566584 2.65057C0.476622 2.52273 0.426906 2.37121 0.417436 2.19602H0.857777C0.8663 2.30114 0.900391 2.38873 0.96005 2.45881C1.02066 2.52794 1.09783 2.57955 1.19158 2.61364C1.28628 2.64678 1.38997 2.66335 1.50266 2.66335C1.62672 2.66335 1.73704 2.64394 1.83363 2.60511C1.93117 2.56534 2.00787 2.51042 2.06374 2.44034C2.11961 2.36932 2.14755 2.28646 2.14755 2.19176C2.14755 2.10559 2.12293 2.03504 2.07369 1.98011C2.02539 1.92519 1.95958 1.87973 1.87624 1.84375C1.79386 1.80777 1.70058 1.77604 1.59641 1.74858L1.25266 1.65483C1.01971 1.59138 0.83505 1.49811 0.698686 1.375C0.563269 1.25189 0.495561 1.08902 0.495561 0.886364C0.495561 0.71875 0.541016 0.572443 0.631925 0.447443C0.722834 0.322443 0.84594 0.225379 1.00124 0.15625C1.15655 0.0861742 1.33174 0.0511363 1.52681 0.0511363C1.72378 0.0511363 1.89755 0.0857007 2.04812 0.15483C2.19963 0.223958 2.31895 0.319129 2.40607 0.440341C2.49319 0.560606 2.53865 0.698864 2.54244 0.855114H2.11914Z" fill="white"/>
</svg>
