<svg xmlns="http://www.w3.org/2000/svg" version="1.1" xmlns:xlink="http://www.w3.org/1999/xlink" xmlns:svgjs="http://svgjs.dev/svgjs" viewBox="0 0 800 400"><path d="M65.02242279052734,319.2825012207031C89.21973136901855,326.95066650390623,137.5067261505127,350.6098760986328,192.37667846679688,359.6412658691406C247.24663078308106,368.67265563964844,282.5829428100586,367.6681512451172,353.8116455078125,366.8161315917969C425.0403482055664,365.96411193847655,507.1121228027344,362.654709777832,567.2645874023438,355.1569519042969C627.4170520019532,347.65919403076174,633.0851824951172,352.2331732177734,670.403564453125,327.354248046875C707.7219464111328,302.4753228759766,746.9775689697266,268.5201711273193,763.6771240234375,224.21524047851562C780.3766790771484,179.91030982971193,783.1748846435547,131.48878702163697,758.2959594726562,94.17040252685547C733.4170343017578,56.85201803207398,690.8430346679687,41.946188049316405,632.7354125976562,27.802690505981445C574.6277905273438,13.659192962646486,524.0358755493164,21.605381240844725,452.46636962890625,19.730941772460938C380.8968637084961,17.85650230407715,315.01344421386716,14.358744468688965,256.0538024902344,17.937219619750977C197.09416076660156,21.51569477081299,181.34528942108153,19.650222682952883,142.1524658203125,38.56502151489258C102.95964221954347,57.47982034683227,71.92824995040894,82.89686305999757,49.77578353881836,117.4887924194336C27.623317127227786,152.08072177886962,25.901344184875487,178.70852851867676,25.560537338256836,220.6278076171875C25.219730491638185,262.54708671569824,22.42152406692505,307.7847366333008,47.98206329345703,338.1165771484375C73.54260251998902,368.4484176635742,116.46637565612794,377.3722113037109,160.08969116210938,380.2690734863281C203.71300666809083,383.16593566894534,236.17038787841798,363.9282476806641,277.5784606933594,353.36322021484375C318.9865335083008,342.7981927490234,358.9417098999023,330.1165811157227,378.02691650390625,324.6636657714844" fill="none" stroke-width="18" stroke="url(&quot;#SvgjsLinearGradient1002&quot;)" stroke-linecap="round"></path><defs><linearGradient id="SvgjsLinearGradient1002"><stop stop-color="hsl(217.2,91.2%,59.8%)" offset="0"></stop><stop stop-color="hsl(224.3,76.3%,48%)" offset="1"></stop></linearGradient></defs></svg>