<svg width="256" height="256" viewBox="0 0 256 256" fill="none" xmlns="http://www.w3.org/2000/svg">
<circle cx="128" cy="128" r="128" fill="#E4E4E7"/>
<g clip-path="url(#clip0_17_8)">
<path fill-rule="evenodd" clip-rule="evenodd" d="M140.56 69.1472L140.756 77.2943L148.766 77.5764C156.812 77.8599 158.049 78.0772 156.706 78.9729C156.306 79.2397 144.296 89.1741 130.016 101.05C115.738 112.925 103.765 122.748 103.41 122.879C103.056 123.01 93.4625 115.33 82.0925 105.815C70.7233 96.2981 60.6509 87.9023 59.71 87.157L58 85.8016L58.5022 104.853C58.9891 123.317 59.0517 123.941 60.527 125.103C61.3642 125.762 71.261 134.028 82.5202 143.472C100.627 158.659 103.132 160.539 104.217 159.752C105.733 158.65 169.387 105.75 174.177 101.611C176.085 99.9618 178.045 98.6119 178.53 98.6119C179.186 98.6119 179.413 100.486 179.413 105.925V113.239H188.467H197.522V87.1194V61H168.943H140.364L140.56 69.1472Z" fill="#3B82F6"/>
</g>
<path d="M109.068 213.818V206.068L128.5 175.455H135.182V186.182H131.227L118.977 205.568V205.932H146.591V213.818H109.068ZM131.409 222V211.455L131.591 208.023V175.455H140.818V222H131.409Z" fill="#0F172A"/>
<defs>
<clipPath id="clip0_17_8">
<rect width="140" height="98.9055" fill="white" transform="translate(58 61)"/>
</clipPath>
</defs>
</svg>
