<svg width="256" height="256" viewBox="0 0 256 256" fill="none" xmlns="http://www.w3.org/2000/svg">
<circle cx="128" cy="128" r="128" fill="#E4E4E7"/>
<g clip-path="url(#clip0_17_8)">
<path fill-rule="evenodd" clip-rule="evenodd" d="M140.56 69.1472L140.756 77.2943L148.766 77.5764C156.812 77.8599 158.049 78.0772 156.706 78.9729C156.306 79.2397 144.296 89.1741 130.016 101.05C115.738 112.925 103.765 122.748 103.41 122.879C103.056 123.01 93.4625 115.33 82.0925 105.815C70.7233 96.2981 60.6509 87.9023 59.71 87.157L58 85.8016L58.5022 104.853C58.9891 123.317 59.0517 123.941 60.527 125.103C61.3642 125.762 71.261 134.028 82.5202 143.472C100.627 158.659 103.132 160.539 104.217 159.752C105.733 158.65 169.387 105.75 174.177 101.611C176.085 99.9618 178.045 98.6119 178.53 98.6119C179.186 98.6119 179.413 100.486 179.413 105.925V113.239H188.467H197.522V87.1194V61H168.943H140.364L140.56 69.1472Z" fill="#3B82F6"/>
</g>
<path d="M110.773 222V214.909L127.341 199.568C128.75 198.205 129.932 196.977 130.886 195.886C131.856 194.795 132.591 193.727 133.091 192.682C133.591 191.621 133.841 190.477 133.841 189.25C133.841 187.886 133.53 186.712 132.909 185.727C132.288 184.727 131.439 183.962 130.364 183.432C129.288 182.886 128.068 182.614 126.705 182.614C125.28 182.614 124.038 182.902 122.977 183.477C121.917 184.053 121.098 184.879 120.523 185.955C119.947 187.03 119.659 188.311 119.659 189.795H110.318C110.318 186.75 111.008 184.106 112.386 181.864C113.765 179.621 115.697 177.886 118.182 176.659C120.667 175.432 123.53 174.818 126.773 174.818C130.106 174.818 133.008 175.409 135.477 176.591C137.962 177.758 139.894 179.379 141.273 181.455C142.652 183.53 143.341 185.909 143.341 188.591C143.341 190.348 142.992 192.083 142.295 193.795C141.614 195.508 140.394 197.409 138.636 199.5C136.879 201.576 134.402 204.068 131.205 206.977L124.409 213.636V213.955H143.955V222H110.773Z" fill="#0F172A"/>
<defs>
<clipPath id="clip0_17_8">
<rect width="140" height="98.9055" fill="white" transform="translate(58 61)"/>
</clipPath>
</defs>
</svg>
