<svg width="256" height="256" viewBox="0 0 256 256" fill="none" xmlns="http://www.w3.org/2000/svg">
<circle cx="128" cy="128" r="128" fill="#E4E4E7"/>
<g clip-path="url(#clip0_17_8)">
<path fill-rule="evenodd" clip-rule="evenodd" d="M140.56 69.1472L140.756 77.2943L148.766 77.5764C156.812 77.8599 158.049 78.0772 156.706 78.9729C156.306 79.2397 144.296 89.1741 130.016 101.05C115.738 112.925 103.765 122.748 103.41 122.879C103.056 123.01 93.4625 115.33 82.0925 105.815C70.7233 96.2981 60.6509 87.9023 59.71 87.157L58 85.8016L58.5022 104.853C58.9891 123.317 59.0517 123.941 60.527 125.103C61.3642 125.762 71.261 134.028 82.5202 143.472C100.627 158.659 103.132 160.539 104.217 159.752C105.733 158.65 169.387 105.75 174.177 101.611C176.085 99.9618 178.045 98.6119 178.53 98.6119C179.186 98.6119 179.413 100.486 179.413 105.925V113.239H188.467H197.522V87.1194V61H168.943H140.364L140.56 69.1472Z" fill="#3B82F6"/>
</g>
<path d="M126.977 222.636C123.583 222.636 120.561 222.053 117.909 220.886C115.273 219.705 113.189 218.083 111.659 216.023C110.144 213.947 109.364 211.553 109.318 208.841H119.227C119.288 209.977 119.659 210.977 120.341 211.841C121.038 212.689 121.962 213.348 123.114 213.818C124.265 214.288 125.561 214.523 127 214.523C128.5 214.523 129.826 214.258 130.977 213.727C132.129 213.197 133.03 212.462 133.682 211.523C134.333 210.583 134.659 209.5 134.659 208.273C134.659 207.03 134.311 205.932 133.614 204.977C132.932 204.008 131.947 203.25 130.659 202.705C129.386 202.159 127.871 201.886 126.114 201.886H121.773V194.659H126.114C127.598 194.659 128.909 194.402 130.045 193.886C131.197 193.371 132.091 192.659 132.727 191.75C133.364 190.826 133.682 189.75 133.682 188.523C133.682 187.356 133.402 186.333 132.841 185.455C132.295 184.561 131.523 183.864 130.523 183.364C129.538 182.864 128.386 182.614 127.068 182.614C125.735 182.614 124.515 182.856 123.409 183.341C122.303 183.811 121.417 184.485 120.75 185.364C120.083 186.242 119.727 187.273 119.682 188.455H110.25C110.295 185.773 111.061 183.409 112.545 181.364C114.03 179.318 116.03 177.72 118.545 176.568C121.076 175.402 123.932 174.818 127.114 174.818C130.326 174.818 133.136 175.402 135.545 176.568C137.955 177.735 139.826 179.311 141.159 181.295C142.508 183.265 143.174 185.477 143.159 187.932C143.174 190.538 142.364 192.712 140.727 194.455C139.106 196.197 136.992 197.303 134.386 197.773V198.136C137.811 198.576 140.417 199.765 142.205 201.705C144.008 203.629 144.902 206.038 144.886 208.932C144.902 211.583 144.136 213.939 142.591 216C141.061 218.061 138.947 219.682 136.25 220.864C133.553 222.045 130.462 222.636 126.977 222.636Z" fill="#0F172A"/>
<defs>
<clipPath id="clip0_17_8">
<rect width="140" height="98.9055" fill="white" transform="translate(58 61)"/>
</clipPath>
</defs>
</svg>
