<svg width="256" height="256" viewBox="0 0 256 256" fill="none" xmlns="http://www.w3.org/2000/svg">
<circle cx="128" cy="128" r="128" fill="#E4E4E7"/>
<g clip-path="url(#clip0_17_8)">
<path fill-rule="evenodd" clip-rule="evenodd" d="M140.56 69.1472L140.756 77.2943L148.766 77.5764C156.812 77.8599 158.049 78.0772 156.706 78.9729C156.306 79.2397 144.296 89.1741 130.016 101.05C115.738 112.925 103.765 122.748 103.41 122.879C103.056 123.01 93.4625 115.33 82.0925 105.815C70.7233 96.2981 60.6509 87.9023 59.71 87.157L58 85.8016L58.5022 104.853C58.9891 123.317 59.0517 123.941 60.527 125.103C61.3642 125.762 71.261 134.028 82.5202 143.472C100.627 158.659 103.132 160.539 104.217 159.752C105.733 158.65 169.387 105.75 174.177 101.611C176.085 99.9618 178.045 98.6119 178.53 98.6119C179.186 98.6119 179.413 100.486 179.413 105.925V113.239H188.467H197.522V87.1194V61H168.943H140.364L140.56 69.1472Z" fill="#3B82F6"/>
</g>
<path d="M127.773 222.636C124.561 222.636 121.697 222.045 119.182 220.864C116.682 219.682 114.697 218.053 113.227 215.977C111.758 213.902 110.992 211.523 110.932 208.841H120.477C120.583 210.644 121.341 212.106 122.75 213.227C124.159 214.348 125.833 214.909 127.773 214.909C129.318 214.909 130.682 214.568 131.864 213.886C133.061 213.189 133.992 212.227 134.659 211C135.341 209.758 135.682 208.333 135.682 206.727C135.682 205.091 135.333 203.652 134.636 202.409C133.955 201.167 133.008 200.197 131.795 199.5C130.583 198.803 129.197 198.447 127.636 198.432C126.273 198.432 124.947 198.712 123.659 199.273C122.386 199.833 121.394 200.598 120.682 201.568L111.932 200L114.136 175.455H142.591V183.5H122.25L121.045 195.159H121.318C122.136 194.008 123.371 193.053 125.023 192.295C126.674 191.538 128.523 191.159 130.568 191.159C133.371 191.159 135.871 191.818 138.068 193.136C140.265 194.455 142 196.265 143.273 198.568C144.545 200.856 145.174 203.492 145.159 206.477C145.174 209.614 144.447 212.402 142.977 214.841C141.523 217.265 139.485 219.174 136.864 220.568C134.258 221.947 131.227 222.636 127.773 222.636Z" fill="#0F172A"/>
<defs>
<clipPath id="clip0_17_8">
<rect width="140" height="98.9055" fill="white" transform="translate(58 61)"/>
</clipPath>
</defs>
</svg>
